<?xml version="1.0" standalone="no"?>
<!DOCTYPE svg PUBLIC "-//W3C//DTD SVG 20010904//EN"
 "http://www.w3.org/TR/2001/REC-SVG-20010904/DTD/svg10.dtd">
<svg version="1.0" xmlns="http://www.w3.org/2000/svg"
 width="216.000000pt" height="216.000000pt" viewBox="0 0 216.000000 216.000000"
 preserveAspectRatio="xMidYMid meet">

<g transform="translate(0.000000,216.000000) scale(0.100000,-0.100000)"
fill="#000000" stroke="none">
<path d="M0 2012 c0 -89 4 -152 10 -158 8 -8 8 -25 0 -58 -13 -57 -13 -1218
-1 -1197 11 17 29 6 42 -23 7 -16 8 -10 4 23 -5 36 -3 42 10 38 10 -4 15 0 15
11 0 9 3 28 5 42 5 22 4 22 -4 5 -9 -20 -10 -20 -10 1 -1 12 10 33 24 48 14
15 25 32 25 37 0 6 15 29 33 52 34 44 77 118 77 134 0 6 23 33 50 62 27 29 50
55 50 59 0 14 58 42 73 36 8 -3 34 0 58 6 31 9 44 9 47 1 2 -6 18 -11 35 -11
23 0 44 -12 76 -40 25 -22 49 -40 55 -40 15 0 42 -32 51 -59 4 -13 15 -21 28
-21 21 0 47 -37 47 -67 0 -7 4 -13 10 -13 5 0 19 -18 30 -40 21 -41 35 -50 42
-28 3 7 17 -6 32 -29 16 -24 26 -49 22 -58 -3 -10 1 -18 12 -21 36 -10 142
-67 142 -75 0 -5 -4 -9 -10 -9 -5 0 -10 -7 -10 -15 0 -18 26 -20 36 -3 9 15
22 -15 23 -53 1 -19 -4 -26 -15 -25 -9 0 -21 -8 -28 -19 -6 -10 -17 -25 -23
-33 -7 -7 -13 -20 -13 -28 0 -8 -4 -14 -10 -14 -5 0 -10 -7 -10 -15 0 -8 -4
-15 -10 -15 -5 0 -9 16 -8 35 1 36 -11 60 -19 38 -3 -7 -13 -23 -23 -35 -15
-18 -22 -21 -36 -12 -28 16 -41 43 -27 52 9 6 8 15 -6 38 -12 20 -17 41 -13
59 9 49 -21 23 -34 -29 -14 -56 -24 -70 -24 -34 0 14 -6 31 -14 37 -12 10 -13
8 -9 -10 5 -16 3 -20 -7 -14 -7 4 -15 2 -20 -5 -4 -6 -18 -10 -31 -8 l-24 3
28 28 c26 27 26 28 5 22 -19 -6 -21 -5 -10 6 6 7 12 26 12 41 0 15 5 28 10 28
6 0 10 18 10 40 0 33 -3 40 -20 40 -16 0 -20 -7 -20 -32 -1 -18 -9 -55 -18
-83 -14 -40 -22 -50 -40 -50 -12 0 -31 -8 -41 -17 -10 -9 -33 -19 -51 -23 -17
-4 -29 -9 -26 -12 3 -3 -1 -18 -9 -32 -7 -15 -16 -47 -20 -71 -3 -25 -13 -51
-22 -57 -9 -7 -13 -16 -9 -20 12 -13 41 13 51 45 6 23 15 32 30 31 19 0 19 -1
0 -8 -18 -7 -18 -9 8 -26 15 -9 27 -24 27 -31 0 -17 -17 -18 -22 -2 -3 9 -9 8
-22 -4 -9 -10 -22 -21 -29 -25 -22 -14 -57 -72 -47 -78 5 -3 20 -3 33 1 14 3
28 1 31 -5 4 -6 12 -11 18 -11 7 0 6 6 -2 15 -11 13 -8 15 13 15 22 0 61 37
83 78 0 1 12 -2 25 -7 19 -8 20 -10 5 -10 -12 -1 -16 -6 -12 -16 3 -9 -1 -18
-8 -21 -8 -3 -17 -17 -20 -30 -5 -18 -12 -24 -24 -20 -11 4 -22 -2 -30 -14 -7
-11 -8 -20 -3 -20 5 0 12 6 14 13 4 9 8 8 16 -3 10 -13 17 -9 46 23 20 20 41
37 48 37 8 0 8 -3 -2 -9 -7 -5 -10 -14 -7 -20 10 -16 36 -13 36 4 0 14 12 19
33 16 4 0 7 6 7 14 0 9 6 12 15 9 8 -4 22 -1 30 6 12 10 15 9 15 -6 0 -13 -16
-28 -47 -44 -27 -14 -51 -29 -54 -34 -4 -5 -14 -6 -23 -3 -8 3 -22 0 -29 -7
-17 -17 -138 -19 -150 -3 -6 8 -7 5 -3 -5 5 -15 -1 -18 -42 -18 -26 0 -58 -3
-72 -7 -22 -6 -24 -5 -11 10 17 21 13 21 -32 2 -43 -18 -50 -19 -42 -5 6 10
-20 15 -65 11 -19 -1 -22 1 -10 8 8 6 11 13 7 18 -4 4 -16 2 -25 -4 -50 -32
-252 169 -237 237 5 24 5 24 -10 6 -18 -23 -22 -196 -5 -196 6 0 10 -7 10 -15
0 -8 -4 -15 -10 -15 -6 0 -10 -40 -10 -100 l0 -100 495 0 c323 0 495 3 495 10
0 6 -4 10 -10 10 -12 0 -13 40 -2 58 5 7 16 10 25 6 12 -4 17 -1 17 10 0 9 5
16 10 16 6 0 10 -4 10 -9 0 -5 8 -11 18 -15 9 -3 23 -9 30 -12 7 -3 12 1 12
10 0 20 16 21 24 1 3 -8 12 -15 21 -15 22 0 19 -28 -5 -42 -11 -7 -20 -16 -20
-20 0 -4 233 -7 518 -8 l517 0 3 75 c3 75 -2 86 -27 63 -10 -11 -11 -7 -5 17
9 39 13 47 25 40 5 -4 9 141 9 371 0 208 -2 375 -4 373 -25 -30 -74 -109 -66
-109 16 0 12 -27 -5 -34 -8 -3 -15 -17 -15 -31 0 -34 -28 -87 -43 -82 -7 2
-12 15 -12 30 0 14 -3 28 -7 32 -9 10 -58 -25 -58 -41 0 -8 -9 -14 -19 -14
-11 0 -22 -9 -26 -19 -4 -14 -15 -19 -38 -19 -18 0 -70 -11 -116 -26 -68 -21
-102 -26 -190 -26 -106 1 -236 22 -196 32 11 3 5 4 -12 2 -20 -2 -33 2 -34 9
-1 7 -2 26 -4 42 -5 45 3 62 31 68 23 4 25 2 20 -19 -8 -29 -5 -30 25 -3 15
13 31 18 46 14 24 -6 33 10 11 18 -21 7 -4 17 20 10 17 -4 21 -10 16 -29 -4
-17 -2 -24 9 -24 8 0 17 7 21 15 3 8 12 12 21 9 8 -3 15 -1 15 6 0 7 8 9 19 5
15 -5 21 1 27 27 5 18 9 38 9 45 0 6 3 15 7 18 4 4 4 13 2 20 -4 8 6 16 27 20
39 9 89 52 89 77 0 10 7 18 15 18 9 0 18 12 21 30 4 17 12 30 19 30 7 0 16 7
19 16 4 9 13 14 21 10 9 -3 15 0 15 9 0 8 8 15 18 15 24 1 62 35 62 55 0 14 3
15 15 5 12 -10 15 -10 15 3 0 9 4 27 10 42 8 22 13 24 30 15 14 -8 20 -8 20 0
0 6 -7 13 -15 16 -8 4 -15 12 -15 19 0 18 30 27 47 14 17 -15 19 -13 27 33 4
21 2 39 -4 43 -5 3 -10 -2 -10 -13 0 -17 -18 -32 -36 -32 -2 0 -4 12 -4 28 0
22 -2 24 -11 12 -8 -11 -12 -12 -16 -2 -8 20 -25 13 -18 -8 8 -24 -20 -28 -29
-4 -8 21 -25 8 -19 -15 3 -13 10 -18 21 -14 10 4 13 2 8 -5 -4 -7 -24 -11 -44
-11 -20 1 -29 3 -19 6 10 3 17 14 17 29 0 18 -6 24 -22 25 -15 0 -18 2 -8 6 8
3 28 15 43 26 20 14 25 23 18 30 -6 6 -11 18 -10 27 0 10 2 11 6 3 7 -19 53
-16 53 2 0 9 7 18 15 21 8 4 15 16 15 27 0 16 -3 18 -12 9 -20 -20 -25 -14
-24 26 1 29 5 36 19 34 28 -5 19 15 -10 24 -21 5 -24 8 -10 11 21 5 20 2 2 46
-8 20 -24 42 -36 50 -20 14 -20 16 -2 26 10 6 12 11 6 11 -7 0 -13 9 -13 20 0
11 -7 20 -16 20 -11 0 -14 -6 -9 -20 7 -23 5 -24 -30 -8 -16 7 -24 17 -20 26
5 12 3 13 -10 2 -9 -7 -18 -11 -20 -8 -8 7 6 38 16 38 5 0 9 3 9 8 0 4 -15 8
-32 8 -18 1 -42 4 -53 7 -11 3 -23 6 -27 6 -5 1 -8 6 -8 12 0 13 -38 49 -53
49 -5 0 -4 7 3 15 12 14 15 14 30 0 9 -8 31 -15 48 -15 29 0 48 -19 20 -20 -7
-1 -1 -8 15 -16 20 -11 32 -12 46 -4 17 9 20 5 27 -33 l8 -42 11 49 c12 53 29
70 38 36 5 -21 23 -25 46 -11 17 11 0 45 -29 61 -11 6 -20 15 -20 21 0 16 58
-29 118 -90 54 -55 65 -87 12 -36 -33 32 -42 31 -33 -4 3 -13 11 -20 19 -17
10 4 12 -2 8 -23 -7 -36 12 -50 32 -25 14 18 15 17 11 -8 -2 -16 2 -33 9 -39
8 -6 14 -17 14 -25 0 -16 42 -83 53 -84 4 0 7 135 6 300 l-1 300 -200 0 -199
0 7 -22 c3 -13 13 -30 20 -39 8 -8 14 -25 14 -36 0 -11 7 -26 15 -33 23 -19
18 -40 -9 -40 -20 0 -30 12 -54 63 -53 108 -51 107 -195 107 -102 0 -126 -3
-131 -15 -3 -8 -10 -15 -16 -15 -5 0 -10 7 -10 15 0 12 -14 15 -66 15 -54 0
-65 -3 -61 -15 4 -8 2 -17 -3 -20 -6 -4 -10 -11 -10 -17 0 -7 4 -7 13 1 25 20
67 -48 48 -78 -14 -23 -38 -6 -88 64 -44 62 -49 65 -88 65 -48 0 -80 -20 -89
-56 -6 -21 -11 -25 -28 -21 -12 3 -30 2 -40 -4 -19 -10 -22 -3 -18 52 1 16 -4
26 -13 26 -8 0 -14 -7 -13 -15 2 -23 -21 -25 -27 -2 -5 20 -10 20 -461 20
l-456 0 0 -148z m895 118 c32 -12 32 -55 0 -55 -13 0 -20 -7 -20 -20 0 -16 8
-21 40 -23 42 -4 125 -62 87 -62 -10 0 -35 -9 -57 -20 -44 -22 -134 -27 -153
-8 -7 7 -12 32 -12 56 0 42 -1 43 -27 40 -22 -2 -28 1 -28 17 0 11 10 24 22
31 13 6 31 18 40 26 17 15 41 24 70 27 6 0 24 -4 38 -9z m-165 -145 c0 -8 -4
-15 -10 -15 -5 0 -10 7 -10 15 0 8 5 15 10 15 6 0 10 -7 10 -15z m758 -7 c-16
-5 -28 -14 -28 -19 0 -5 -7 -9 -15 -9 -8 0 -15 -5 -15 -11 0 -5 4 -7 10 -4 22
13 -5 -32 -34 -57 -26 -23 -29 -29 -16 -38 13 -8 11 -11 -7 -16 -13 -4 -23
-13 -23 -21 0 -8 5 -11 10 -8 6 3 13 -1 17 -10 3 -10 1 -20 -6 -24 -7 -4 -11
-14 -9 -21 2 -7 -2 -14 -9 -17 -7 -3 -9 4 -6 19 6 23 6 23 -15 4 -24 -21 -28
-42 -10 -48 10 -4 10 -10 1 -31 -7 -15 -17 -27 -23 -27 -14 0 -12 27 3 33 8 4
6 6 -4 6 -9 1 -24 -7 -33 -18 -15 -16 -15 -19 -1 -24 24 -10 17 -24 -15 -30
-25 -6 -30 -11 -30 -36 0 -20 -7 -34 -20 -41 -12 -6 -17 -16 -13 -26 4 -10 -1
-20 -10 -26 -20 -11 -23 -38 -4 -39 10 0 10 -2 0 -6 -7 -2 -13 -12 -13 -20 0
-9 -6 -13 -14 -10 -18 7 -42 -18 -26 -28 7 -4 7 -12 -1 -26 -13 -24 -4 -38 13
-21 16 16 28 15 28 -3 0 -8 -6 -12 -14 -9 -9 3 -20 -3 -28 -15 -9 -15 -23 -21
-50 -21 -21 0 -38 5 -38 10 0 6 -12 10 -27 10 -16 0 -33 4 -39 8 -15 9 -30 57
-16 48 27 -17 40 7 47 87 4 45 13 99 20 119 7 21 8 35 3 32 -5 -4 -2 8 6 25 9
17 21 31 26 31 6 0 10 7 10 15 0 9 9 15 25 15 14 0 25 5 25 10 0 6 -13 10 -28
10 -40 0 -45 9 -19 40 12 15 29 37 37 49 10 15 25 21 52 21 27 0 38 4 38 15 0
8 6 15 14 15 7 0 33 18 56 39 37 34 40 40 24 44 -10 3 -2 3 19 0 31 -4 36 -3
31 11 -3 9 -11 16 -17 16 -18 0 0 11 40 25 21 8 63 14 93 14 49 -1 52 -2 28
-11z m-571 -81 c4 -6 0 -8 -10 -4 -9 3 -19 2 -22 -3 -9 -15 -55 -12 -55 3 0 8
2 16 5 18 8 9 75 -3 82 -14z m-208 -37 c8 -25 7 -32 -4 -37 -29 -10 -46 5 -39
34 13 53 25 54 43 3z m471 -5 c0 -8 -4 -15 -10 -15 -5 0 -7 7 -4 15 4 8 8 15
10 15 2 0 4 -7 4 -15z m768 -3 c2 -7 -2 -10 -12 -6 -9 3 -16 11 -16 16 0 13
23 5 28 -10z m-1048 -1 c0 -21 -13 -41 -26 -41 -20 0 -30 30 -13 41 18 11 39
11 39 0z m134 -46 c-4 -8 -11 -15 -16 -15 -6 0 -5 6 2 15 7 8 14 15 16 15 2 0
1 -7 -2 -15z m1111 5 c3 -5 2 -10 -4 -10 -5 0 -13 5 -16 10 -3 6 -2 10 4 10 5
0 13 -4 16 -10z m-395 -40 c0 -5 -4 -10 -10 -10 -5 0 -10 5 -10 10 0 6 5 10
10 10 6 0 10 -4 10 -10z m85 -110 c3 -5 1 -10 -4 -10 -6 0 -11 5 -11 10 0 6 2
10 4 10 3 0 8 -4 11 -10z m-5 -40 c0 -5 -4 -10 -10 -10 -5 0 -10 5 -10 10 0 6
5 10 10 10 6 0 10 -4 10 -10z m-1550 -50 c0 -13 -5 -18 -15 -14 -16 7 -19 17
-8 27 12 13 23 7 23 -13z m338 -25 c4 -16 2 -16 -22 1 -14 11 -26 25 -26 33 0
20 44 -11 48 -34z m1302 15 c0 -5 -4 -10 -10 -10 -5 0 -10 5 -10 10 0 6 5 10
10 10 6 0 10 -4 10 -10z m-1134 -60 c7 -14 13 -29 14 -35 0 -17 -103 -11 -130
8 -13 9 -30 17 -37 17 -13 0 -18 22 -8 32 3 2 37 4 76 4 65 -1 72 -3 85 -26z
m1154 -30 c0 -5 -7 -7 -15 -4 -8 4 -15 8 -15 10 0 2 7 4 15 4 8 0 15 -4 15
-10z m-1170 -75 c7 -8 16 -13 20 -10 14 9 20 -27 14 -79 -6 -38 -9 -46 -15
-31 -4 11 -8 37 -8 57 -1 28 -6 38 -21 43 -11 3 -20 13 -20 21 0 18 14 18 30
-1z m-90 -95 c0 -5 -4 -10 -10 -10 -5 0 -10 5 -10 10 0 6 5 10 10 10 6 0 10
-4 10 -10z m1099 -41 c-16 -10 -23 -4 -14 10 3 6 11 8 17 5 6 -4 5 -9 -3 -15z
m164 -30 c-11 -11 -43 -2 -43 11 0 12 44 17 49 7 2 -5 -1 -13 -6 -18z m-1617
6 c-8 -8 -21 -15 -28 -15 -8 1 -6 6 6 15 26 20 42 19 22 0z m1529 6 c3 -5 1
-12 -5 -16 -5 -3 -10 1 -10 9 0 18 6 21 15 7z m-871 -26 c4 -14 4 -30 0 -36
-3 -6 -3 -21 0 -35 10 -37 29 -18 23 22 -4 24 -2 34 7 34 15 0 14 -74 -2 -127
-8 -25 -7 -35 5 -45 13 -10 17 -10 20 0 3 6 14 11 26 11 18 -1 19 -2 4 -6 -26
-7 -18 -45 13 -60 24 -12 24 -13 3 -13 -21 0 -22 -1 -7 -36 13 -30 13 -39 2
-46 -9 -6 -6 -7 10 -3 16 5 22 2 22 -10 0 -21 -32 -54 -37 -38 -2 6 -13 21
-23 33 -27 31 -33 56 -20 80 10 19 10 20 -7 11 -17 -9 -19 -7 -15 18 5 34 -13
71 -33 71 -9 0 -15 10 -16 23 -1 21 -1 21 -8 -2 -6 -23 -8 -21 -20 17 -8 23
-19 42 -24 42 -5 0 -4 7 4 16 10 13 10 17 -1 24 -8 5 -11 13 -6 17 5 4 11 2
13 -4 7 -19 21 -16 33 7 9 16 8 18 -5 14 -20 -8 -19 10 1 30 22 22 31 20 38
-9z m903 -11 c-3 -3 -12 -4 -19 -1 -8 3 -5 6 6 6 11 1 17 -2 13 -5z m-112 -84
c-3 -5 -11 -10 -16 -10 -6 0 -7 5 -4 10 3 6 11 10 16 10 6 0 7 -4 4 -10z
m-779 -129 c0 -11 -4 -17 -8 -15 -4 3 -8 12 -8 20 0 8 4 14 8 14 4 0 8 -9 8
-19z m252 -50 c2 -26 -1 -29 -40 -35 -33 -5 -45 -3 -54 9 -6 8 -16 15 -23 15
-6 0 -11 7 -11 15 0 11 11 15 38 15 20 0 43 4 51 9 22 14 37 3 39 -28z m282 4
c-7 -9 -15 -13 -17 -11 -7 7 7 26 19 26 6 0 6 -6 -2 -15z m-246 -51 c3 -8 2
-12 -4 -9 -6 3 -10 -3 -10 -14 0 -10 5 -21 11 -23 16 -5 1 -48 -17 -48 -8 0
-14 -7 -14 -15 0 -8 -14 -17 -35 -21 -19 -3 -35 -10 -35 -15 0 -5 -7 -9 -15
-9 -8 0 -15 7 -15 15 0 8 5 15 11 15 14 0 -11 24 -33 33 -31 11 -19 36 26 57
25 11 51 20 59 20 8 0 20 7 27 15 16 19 36 19 44 -1z m-139 -4 c3 -5 -1 -10
-9 -10 -9 0 -16 5 -16 10 0 6 4 10 9 10 6 0 13 -4 16 -10z m85 -151 c0 -8 4
-8 15 1 18 15 35 5 35 -23 0 -16 -3 -18 -12 -9 -7 7 -22 12 -35 12 -14 0 -23
6 -23 15 0 8 5 15 10 15 6 0 10 -5 10 -11z m45 -59 c-3 -5 -13 -10 -21 -10 -8
0 -14 5 -14 10 0 6 9 10 21 10 11 0 17 -4 14 -10z m698 -15 c0 -6 -7 -11 -16
-13 -12 -3 -15 1 -11 13 7 17 25 17 27 0z m-1298 -154 c3 -5 1 -12 -5 -16 -5
-3 -10 1 -10 9 0 18 6 21 15 7z m931 -28 c-11 -11 -19 6 -11 24 8 17 8 17 12
0 3 -10 2 -21 -1 -24z m-716 6 c0 -5 -4 -9 -10 -9 -5 0 -10 7 -10 16 0 8 5 12
10 9 6 -3 10 -10 10 -16z m858 -21 c7 -7 20 -13 30 -13 9 0 16 -5 15 -12 -2
-8 8 -10 32 -6 28 5 35 2 35 -11 0 -21 -33 -33 -93 -32 -29 1 -47 -3 -47 -10
0 -17 -51 -27 -64 -14 -8 8 -5 12 11 16 24 7 35 38 26 72 -4 18 -1 22 19 22
13 0 30 -6 36 -12z m-1105 -74 c-4 -11 -9 -12 -18 -4 -14 11 -14 22 0 55 8 17
9 17 16 -9 4 -15 5 -34 2 -42z m1017 36 c0 -5 -7 -10 -15 -10 -8 0 -15 5 -15
10 0 6 7 10 15 10 8 0 15 -4 15 -10z m-337 -19 c19 -19 2 -46 -30 -49 -27 -3
-34 2 -47 27 -9 16 -16 33 -16 37 0 9 83 -5 93 -15z m-126 -33 c-3 -7 -5 -2
-5 12 0 14 2 19 5 13 2 -7 2 -19 0 -25z m-87 -28 c0 -5 -2 -10 -4 -10 -3 0 -8
5 -11 10 -3 6 -1 10 4 10 6 0 11 -4 11 -10z m90 -10 c0 -11 -4 -20 -10 -20 -5
0 -10 9 -10 20 0 11 5 20 10 20 6 0 10 -9 10 -20z m70 -87 c6 -35 4 -43 -9
-43 -13 0 -16 13 -18 63 -1 50 0 58 10 42 6 -11 14 -39 17 -62z m-190 58 c0
-5 -9 -19 -21 -32 l-20 -24 13 25 c7 14 11 28 10 33 -1 4 3 7 8 7 6 0 10 -4
10 -9z m660 -21 c0 -16 -4 -30 -10 -30 -5 0 -10 14 -10 30 0 17 5 30 10 30 6
0 10 -13 10 -30z m-588 12 c-7 -5 -11 -19 -10 -32 3 -27 -19 -39 -28 -15 -7
17 21 55 40 55 7 0 6 -4 -2 -8z m-160 -44 c-6 -6 -15 -7 -22 -3 -8 5 -6 11 7
20 20 15 32 0 15 -17z m-42 2 c0 -11 -7 -20 -15 -20 -15 0 -21 21 -8 33 12 13
23 7 23 -13z m-30 -45 c16 -30 34 -33 25 -5 -4 13 -2 20 7 21 7 0 23 2 36 5
35 6 26 -12 -24 -47 -54 -37 -164 -82 -164 -67 0 7 -5 6 -15 -2 -18 -15 -92
-17 -127 -2 -35 15 -36 26 -2 18 15 -4 32 -2 40 5 8 6 33 13 56 15 23 2 44 7
47 11 8 11 49 33 61 33 5 0 10 -9 10 -21 0 -11 5 -17 10 -14 6 4 8 11 4 16 -3
6 2 17 12 24 18 14 18 14 1 15 -10 0 -15 5 -12 10 10 16 21 12 35 -15z m228
-14 c3 -8 -1 -12 -9 -9 -7 2 -15 10 -17 17 -3 8 1 12 9 9 7 -2 15 -10 17 -17z
m-88 -36 c0 -7 -7 -18 -15 -25 -12 -10 -15 -7 -21 14 -8 33 3 51 22 35 8 -6
14 -17 14 -24z m217 3 c-3 -7 -5 -2 -5 12 0 14 2 19 5 13 2 -7 2 -19 0 -25z
m-1163 -24 c7 -19 -1 -34 -19 -34 -18 0 -28 17 -21 35 7 20 32 19 40 -1z
m1150 -43 c3 -5 -1 -14 -9 -21 -13 -10 -15 -9 -15 9 0 21 14 28 24 12z m-1144
-27 c0 -16 -16 -19 -25 -4 -8 13 4 32 16 25 5 -4 9 -13 9 -21z m87 1 c8 -22
-6 -33 -17 -15 -13 20 -12 30 0 30 6 0 13 -7 17 -15z m1023 -50 c-7 -8 -16
-12 -21 -9 -13 8 -1 24 18 24 13 0 13 -3 3 -15z"/>
<path d="M815 2089 c-4 -6 0 -18 9 -27 15 -15 16 -15 16 5 0 25 -15 38 -25 22z"/>
<path d="M1385 1960 c3 -5 12 -7 20 -3 21 7 19 13 -6 13 -11 0 -18 -4 -14 -10z"/>
<path d="M1310 1770 c0 -5 7 -10 16 -10 8 0 12 5 9 10 -3 6 -10 10 -16 10 -5
0 -9 -4 -9 -10z"/>
<path d="M951 1144 c0 -11 3 -14 6 -6 3 7 2 16 -1 19 -3 4 -6 -2 -5 -13z"/>
<path d="M920 1134 c0 -5 7 -18 15 -28 12 -16 15 -17 15 -4 0 8 -7 21 -15 28
-8 7 -15 9 -15 4z"/>
<path d="M625 410 c-3 -5 -1 -10 4 -10 6 0 11 5 11 10 0 6 -2 10 -4 10 -3 0
-8 -4 -11 -10z"/>
<path d="M1991 1614 c0 -11 3 -14 6 -6 3 7 2 16 -1 19 -3 4 -6 -2 -5 -13z"/>
<path d="M2027 1393 c-11 -11 -8 -31 6 -36 10 -4 13 2 9 19 -5 26 -6 27 -15
17z"/>
<path d="M1940 1370 c0 -6 17 -10 37 -10 43 0 41 5 -4 13 -19 4 -33 2 -33 -3z"/>
<path d="M2085 1360 c-3 -5 1 -10 10 -10 9 0 13 5 10 10 -3 6 -8 10 -10 10 -2
0 -7 -4 -10 -10z"/>
<path d="M2070 1320 c0 -5 7 -7 15 -4 8 4 15 8 15 10 0 2 -7 4 -15 4 -8 0 -15
-4 -15 -10z"/>
<path d="M1630 680 c0 -5 5 -10 10 -10 6 0 10 5 10 10 0 6 -4 10 -10 10 -5 0
-10 -4 -10 -10z"/>
<path d="M1375 660 c4 -6 11 -8 16 -5 14 9 11 15 -7 15 -8 0 -12 -5 -9 -10z"/>
<path d="M682 618 c-14 -14 -16 -38 -3 -38 15 0 30 25 22 38 -5 9 -10 9 -19 0z"/>
<path d="M1428 623 c7 -3 16 -2 19 1 4 3 -2 6 -13 5 -11 0 -14 -3 -6 -6z"/>
<path d="M1498 613 c7 -3 16 -2 19 1 4 3 -2 6 -13 5 -11 0 -14 -3 -6 -6z"/>
<path d="M1100 570 c0 -5 5 -10 10 -10 6 0 10 5 10 10 0 6 -4 10 -10 10 -5 0
-10 -4 -10 -10z"/>
<path d="M951 464 c0 -11 3 -14 6 -6 3 7 2 16 -1 19 -3 4 -6 -2 -5 -13z"/>
<path d="M51 454 c0 -11 3 -14 6 -6 3 7 2 16 -1 19 -3 4 -6 -2 -5 -13z"/>
<path d="M57 412 c-15 -16 -15 -20 3 -47 11 -17 20 -25 20 -20 0 6 -7 21 -16
33 -8 12 -11 22 -6 22 6 0 12 7 16 15 7 20 3 19 -17 -3z"/>
<path d="M190 230 c0 -5 5 -10 11 -10 5 0 7 5 4 10 -3 6 -8 10 -11 10 -2 0 -4
-4 -4 -10z"/>
<path d="M226 222 c-3 -6 -1 -14 5 -17 14 -9 20 -2 10 14 -6 8 -11 9 -15 3z"/>
</g>
</svg>
