<?xml version="1.0" standalone="no"?>
<!DOCTYPE svg PUBLIC "-//W3C//DTD SVG 20010904//EN"
 "http://www.w3.org/TR/2001/REC-SVG-20010904/DTD/svg10.dtd">
<svg version="1.0" xmlns="http://www.w3.org/2000/svg"
 width="275.000000pt" height="183.000000pt" viewBox="0 0 275.000000 183.000000"
 preserveAspectRatio="xMidYMid meet">

<g transform="translate(0.000000,183.000000) scale(0.100000,-0.100000)"
fill="#000000" stroke="none">
<path d="M2600 1807 c-37 -24 -64 -26 -421 -43 l-156 -7 11 -23 c10 -21 12
-21 28 -7 22 19 24 8 3 -13 -12 -12 -12 -20 -2 -41 l12 -26 5 23 c3 13 11 25
18 28 17 5 15 -9 -4 -36 -9 -13 -13 -30 -10 -38 12 -32 -12 -3 -29 36 -10 22
-22 40 -27 40 -5 0 -7 4 -3 10 7 11 -30 50 -47 50 -9 0 -9 -3 0 -12 7 -7 12
-14 12 -18 0 -10 -115 2 -122 13 -4 7 -11 7 -22 -2 -8 -7 -30 -13 -48 -15 -18
-1 -39 -5 -45 -9 -9 -5 -13 -2 -13 8 0 9 -4 14 -10 10 -6 -3 -5 -15 2 -31 10
-20 9 -27 -3 -35 -8 -5 -20 -7 -26 -4 -7 2 -17 -4 -22 -13 -9 -16 -10 -16 -16
1 -4 9 -13 17 -20 17 -16 0 -13 32 3 38 8 2 8 8 -2 18 -17 17 -40 18 -68 3
-13 -7 -18 -7 -14 -1 10 17 -81 27 -109 12 -27 -14 -42 -43 -26 -48 6 -2 11
-15 11 -29 0 -17 -4 -23 -13 -20 -11 4 -13 -8 -9 -62 3 -53 1 -70 -12 -80 -14
-12 -16 -9 -16 22 0 22 -6 37 -16 41 -12 5 -14 1 -8 -17 7 -22 6 -22 -14 -4
-20 18 -48 15 -37 -3 3 -5 1 -11 -5 -15 -5 -3 -10 3 -10 14 0 11 -11 33 -25
49 -24 29 -24 30 -4 25 25 -7 41 14 33 41 -4 13 -2 17 7 14 9 -3 13 -17 11
-39 l-3 -34 18 24 c16 23 17 23 23 5 5 -13 9 -1 14 36 4 31 4 64 0 73 -6 16
-9 16 -23 4 -32 -28 -54 -29 -76 -4 -15 19 -33 26 -72 28 -28 2 -49 1 -46 -3
2 -5 23 -8 46 -9 36 0 39 -2 19 -10 -13 -5 -20 -13 -17 -19 10 -17 -5 -33 -20
-20 -9 8 -14 6 -19 -5 -9 -24 -28 -18 -21 6 5 15 4 19 -5 14 -7 -4 -10 -1 -8
11 2 15 -3 19 -30 19 -18 0 -36 5 -40 10 -4 6 -17 15 -30 20 -15 7 32 9 150 7
160 -3 175 -5 196 -25 17 -16 25 -18 34 -9 8 8 67 12 193 12 203 0 347 9 339
21 -2 4 -11 6 -19 3 -10 -4 -12 1 -9 18 l5 23 -10 -22 c-6 -14 -19 -23 -33
-23 -13 0 -96 -2 -186 -3 -90 -2 -182 -1 -205 2 -23 4 -55 4 -72 1 -16 -3 -47
0 -67 7 -20 7 -93 13 -165 14 -70 1 -142 6 -160 11 -21 6 -39 6 -51 -1 -11 -6
-22 -8 -26 -4 -3 3 -43 5 -88 4 -62 -2 -91 -7 -115 -22 -30 -19 -34 -19 -57
-3 -22 14 -62 16 -290 18 l-264 1 -6 -26 c-3 -15 -12 -34 -21 -43 -15 -15 -15
-17 0 -22 12 -5 15 -14 10 -33 -4 -17 -3 -23 3 -16 6 6 12 21 14 35 l4 25 5
-25 c3 -14 -1 -40 -8 -58 -12 -30 -15 -32 -29 -17 -10 10 -24 13 -38 9 -20 -6
-20 -6 -4 13 14 15 15 22 6 31 -15 15 -28 15 -28 1 0 -5 4 -8 9 -4 5 3 12 1
16 -5 3 -5 -1 -10 -9 -10 -9 0 -16 -5 -16 -10 0 -19 31 -71 39 -66 4 3 15 -9
25 -25 16 -28 16 -32 2 -54 -19 -29 -20 -71 -2 -104 8 -14 12 -30 10 -36 -7
-17 41 -36 54 -23 7 7 100 13 259 15 153 3 252 8 260 15 16 13 17 106 2 253
-12 114 -20 138 -41 117 -9 -9 -7 -16 6 -31 17 -18 16 -19 -8 -17 -14 0 -26 4
-26 9 0 4 -7 7 -16 7 -8 0 -12 5 -9 10 3 6 2 10 -4 10 -6 0 -8 7 -5 15 9 21
-23 19 -35 -2 -8 -15 -21 -17 -75 -15 -46 2 -66 0 -66 -8 0 -8 -9 -10 -25 -6
-27 7 -32 -2 -13 -23 7 -8 -8 0 -34 18 -43 29 -53 31 -133 31 -55 0 -84 4 -80
10 4 6 63 10 145 10 76 0 184 5 241 11 57 5 118 8 135 4 49 -9 61 -46 74 -235
l11 -165 -23 -20 -23 -20 22 -22 c13 -12 23 -35 24 -50 0 -15 5 -37 10 -48 6
-14 8 -4 4 34 -6 55 10 91 42 91 19 0 17 5 -17 38 -17 18 -30 40 -29 54 1 23
1 23 12 -3 7 -14 18 -33 26 -43 15 -17 71 -22 71 -6 0 6 5 10 11 10 5 0 8 -4
5 -9 -8 -12 55 -20 184 -23 105 -3 105 -3 102 20 -2 13 2 30 8 38 10 11 9 14
-6 14 -16 0 -17 2 -4 10 8 5 11 10 5 10 -5 0 5 8 24 17 26 13 36 14 39 5 2 -7
11 -12 20 -13 13 0 12 -3 -5 -11 -21 -10 -21 -12 -5 -36 16 -25 16 -25 -11
-20 -15 3 -27 1 -27 -3 0 -5 -4 -9 -10 -9 -5 0 -6 7 -3 17 4 11 3 14 -5 9 -18
-11 -14 -34 6 -45 10 -5 50 -10 90 -10 93 0 103 9 101 95 -1 36 1 67 5 71 3 3
6 -30 6 -74 0 -60 -4 -84 -15 -93 -14 -12 -14 -15 1 -31 9 -10 21 -16 27 -12
7 4 8 -1 4 -13 -7 -18 -6 -18 7 -1 7 9 19 17 26 17 10 0 10 -3 0 -15 -11 -13
-11 -18 0 -28 10 -10 12 -9 7 6 -8 21 6 22 23 2 12 -15 6 -18 -35 -18 -6 0
-11 -29 -12 -66 -1 -36 -5 -82 -8 -102 -5 -26 -2 -44 10 -62 13 -21 14 -30 5
-47 -10 -18 -8 -24 7 -36 23 -17 65 -18 82 -1 11 10 13 9 9 -3 -5 -13 7 -15
71 -12 42 1 112 -2 156 -6 79 -9 78 -9 -59 -11 -77 0 -137 -3 -135 -5 4 -3
146 -14 229 -17 41 -2 39 -2 -19 -9 -36 -4 -67 -13 -72 -21 -7 -11 -9 -11 -9
2 0 13 -20 17 -131 22 -94 5 -136 3 -150 -6 -21 -13 -26 -37 -6 -37 6 0 4 -5
-5 -11 -20 -11 -24 -29 -8 -29 19 0 37 24 32 42 -2 10 1 18 7 18 16 0 13 -31
-5 -52 -13 -14 -16 -36 -15 -100 1 -46 7 -88 12 -94 7 -8 6 -14 -1 -19 -17
-10 -11 -51 11 -70 20 -19 20 -19 10 9 -7 17 -7 25 -1 21 9 -6 14 6 11 30 0 6
8 11 19 11 11 0 20 -4 20 -8 0 -4 7 -4 17 -1 12 5 14 3 8 -7 -6 -10 -4 -12 8
-7 20 8 22 -4 5 -22 -9 -10 -9 -12 -1 -7 6 3 14 2 18 -4 3 -5 -1 -10 -9 -10
-9 0 -16 -7 -16 -15 0 -12 4 -13 18 -7 9 5 32 7 50 5 31 -5 37 1 34 37 -1 12
77 -3 82 -16 4 -10 0 -14 -11 -12 -9 2 -18 -3 -21 -11 -3 -11 0 -12 14 -6 11
4 25 8 32 8 6 0 12 4 12 9 0 12 30 9 80 -8 30 -10 46 -12 48 -5 2 6 12 11 22
11 19 0 34 36 19 46 -5 3 -7 9 -4 13 7 12 -47 11 -61 0 -13 -10 -44 -2 -44 12
0 5 10 8 23 6 15 -1 21 3 18 13 -12 51 11 68 27 21 7 -20 16 -29 25 -25 8 3
18 -1 24 -8 15 -19 23 -58 12 -58 -5 0 -9 -9 -9 -20 0 -15 7 -20 28 -20 58 0
67 17 62 126 -2 55 -3 122 -2 149 3 87 -2 95 -54 95 -25 0 -43 4 -40 8 3 5 -9
7 -27 5 -29 -2 -30 -2 -7 6 23 8 24 9 3 10 -39 2 -36 21 3 21 l38 0 -22 20
c-12 12 -22 24 -22 27 0 4 13 -5 28 -20 32 -31 60 -34 102 -12 28 14 30 20 30
71 0 40 -3 54 -12 51 -7 -2 -12 -13 -10 -23 1 -10 4 -35 7 -54 l5 -35 -11 35
c-5 19 -17 40 -24 46 -9 6 -12 19 -8 33 4 18 8 20 15 9 7 -9 8 -7 5 8 -2 12 2
32 9 45 12 23 13 22 9 -13 -5 -40 10 -53 17 -15 7 35 4 185 -4 192 -3 4 -15 2
-27 -4 -14 -8 -22 -8 -26 -1 -9 15 14 40 37 40 18 0 18 1 4 16 -18 18 -19 24
-6 44 8 12 10 12 10 1 0 -8 2 -12 4 -10 3 2 8 51 11 109 4 58 11 112 16 120 7
12 9 11 10 -5 1 -11 1 -24 0 -28 -7 -42 -8 -187 -1 -187 5 0 7 -11 4 -24 -2
-14 1 -28 7 -32 7 -4 80 -7 163 -7 83 0 136 -1 119 -4 -18 -2 -33 -8 -33 -14
0 -5 -16 -9 -36 -9 -19 0 -44 -5 -55 -10 -13 -7 -19 -7 -19 0 0 5 -4 10 -10
10 -5 0 -10 -8 -10 -17 0 -15 -2 -15 -9 -4 -8 12 -18 13 -47 5 -41 -10 -42
-13 -57 -119 -6 -39 -6 -39 8 -15 17 29 20 19 4 -12 -17 -32 -21 -69 -14 -135
l7 -63 32 4 c40 6 69 -9 38 -18 -11 -4 -25 -12 -31 -19 -8 -10 -3 -13 23 -12
18 1 37 4 42 8 6 3 19 4 30 3 10 -2 28 2 39 8 12 7 74 11 155 11 129 0 135 1
132 20 -3 19 -3 19 10 1 12 -15 23 -17 73 -12 65 6 72 13 81 71 10 67 2 109
-23 120 -19 8 -21 15 -16 55 3 25 10 50 15 55 6 6 7 -1 4 -18 -4 -24 -3 -27
10 -17 24 21 11 100 -17 100 -6 0 -7 -5 -3 -12 5 -8 2 -9 -9 -5 -10 3 -17 2
-17 -3 0 -5 -21 -3 -46 5 -45 13 -110 10 -120 -6 -3 -5 -13 -5 -24 1 -13 7
-21 6 -30 -5 -19 -22 -30 -18 -30 11 0 16 -4 23 -12 18 -7 -4 -8 -3 -4 5 4 6
12 8 18 5 6 -4 14 0 19 7 6 9 9 10 9 2 0 -6 -4 -15 -10 -18 -5 -3 -10 -11 -10
-17 0 -6 7 -5 18 4 9 9 24 18 32 21 12 4 11 6 -2 6 -10 1 -18 6 -18 11 0 7 19
9 55 5 30 -4 60 -3 67 1 7 5 27 7 44 5 61 -5 65 11 62 202 -2 125 -6 171 -15
175 -7 2 -13 -3 -13 -10 0 -15 -11 -15 -111 -3 -97 11 -174 -24 -164 -76 2
-11 -1 -16 -8 -13 -7 2 -20 -8 -30 -23 -15 -24 -17 -25 -12 -6 5 19 3 22 -12
17 -12 -4 -11 -1 4 8 23 14 23 14 23 49 0 18 2 19 15 9 22 -18 18 -4 -7 30
-19 26 -28 30 -70 30 -30 0 -47 -4 -43 -10 8 -14 -28 -13 -42 1 -6 6 -27 11
-47 11 -20 0 -36 4 -36 9 0 11 -26 10 275 14 274 3 296 -1 316 -53 16 -39 1
-320 -17 -349 -13 -20 -13 -23 0 -23 8 0 24 -12 37 -27 22 -29 23 -37 6 -360
0 -7 -15 -18 -33 -25 l-33 -12 20 -24 c17 -22 19 -42 19 -183 l0 -159 -30 -26
c-27 -25 -28 -28 -15 -48 9 -13 15 -44 15 -83 l0 -63 30 0 c28 0 30 2 30 40 0
22 -4 40 -10 40 -5 0 -10 5 -10 11 0 5 4 8 8 5 10 -6 8 94 -2 139 -5 25 -5 27
3 8 6 -13 12 -23 13 -23 2 0 1 44 -2 97 -8 160 -3 266 15 324 5 13 8 134 7
269 -1 135 3 292 8 349 7 75 7 107 -1 112 -8 5 -8 8 0 13 6 4 11 35 11 72 l0
64 -30 0 c-23 0 -30 -5 -30 -19 0 -24 -13 -33 -35 -25 -10 4 -15 14 -12 25 7
24 0 24 -43 -4z m-1655 -16 l40 -9 -38 -1 c-24 -1 -36 -5 -32 -12 4 -6 13 -8
21 -5 11 4 11 0 2 -19 -6 -14 -16 -25 -21 -25 -5 0 -4 6 2 14 9 11 5 17 -16
31 -16 10 -25 14 -21 10 4 -4 -10 -16 -30 -26 -32 -16 -38 -25 -40 -53 -1 -19
2 -37 8 -41 6 -4 5 -11 -3 -19 -6 -8 -15 -12 -18 -10 -3 2 -4 -8 -1 -21 2 -15
9 -22 16 -18 6 3 6 0 -1 -8 -16 -17 -17 -69 -1 -69 6 0 3 -6 -8 -14 -14 -11
-22 -11 -32 -3 -9 7 -12 7 -10 0 3 -10 -1 -13 -19 -13 -8 0 -9 35 -5 191 3
107 21 129 105 128 34 0 80 -4 102 -8z m1745 -51 c0 -5 -5 -10 -11 -10 -5 0
-7 5 -4 10 3 6 8 10 11 10 2 0 4 -4 4 -10z m-1806 -25 c-3 -17 1 -27 11 -31
23 -9 8 -24 -24 -24 -35 0 -62 26 -37 36 11 4 23 -1 32 -12 14 -18 15 -18 5 3
-11 22 -5 53 9 53 5 0 7 -11 4 -25z m1000 -14 c3 -5 -1 -12 -10 -15 -8 -3 -13
-9 -10 -14 2 -4 -7 -9 -21 -10 -23 -2 -24 0 -12 15 10 11 10 14 2 9 -7 -4 -13
-2 -13 3 0 6 -6 11 -14 11 -12 0 -12 -6 0 -37 18 -52 17 -67 -6 -94 l-19 -24
-1 25 c0 17 3 21 9 12 16 -27 21 16 6 59 -20 56 -20 57 18 73 31 13 58 8 71
-13z m-1373 -8 c16 -19 18 -23 4 -12 -11 9 -29 21 -40 27 -15 9 -16 11 -4 12
8 0 26 -12 40 -27z m1475 -27 c-5 -21 -5 -21 9 -2 12 16 15 17 15 4 0 -9 10
-19 23 -23 21 -6 21 -7 -7 -15 -16 -5 -33 -7 -39 -3 -5 3 -4 -4 2 -15 17 -32
14 -44 -8 -33 -10 6 -21 7 -25 4 -3 -3 -6 1 -6 10 0 18 -25 23 -35 7 -3 -5
-12 -10 -18 -10 -7 1 -2 9 10 19 19 16 20 20 6 33 -13 14 -12 15 14 12 25 -2
26 -1 11 10 -10 7 -18 19 -18 27 0 10 3 10 12 1 17 -17 28 -15 28 4 0 14 3 14
16 3 9 -7 13 -21 10 -33z m171 -3 c-3 -10 -5 -4 -5 12 0 17 2 24 5 18 2 -7 2
-21 0 -30z m-1595 -37 c4 3 4 -3 1 -15 -5 -21 11 -29 22 -11 3 6 11 10 16 10
6 0 7 -4 4 -10 -3 -5 0 -10 7 -11 9 0 9 -2 -2 -6 -21 -9 -40 -30 -33 -37 10
-9 -10 -7 -26 3 -10 7 -19 5 -26 -6 -11 -14 -12 -14 -12 1 0 8 9 18 19 22 19
6 22 26 8 59 -8 19 -9 19 -9 1 -1 -11 -4 -17 -7 -13 -3 3 -3 16 1 28 l7 22 12
-22 c7 -12 15 -19 18 -15z m2073 -63 c-4 -35 -9 -63 -11 -60 -2 2 -1 37 2 78
4 41 9 68 12 61 2 -8 1 -43 -3 -79z m-880 46 c14 -22 -3 -18 -26 7 -23 25 -23
26 -2 15 12 -6 25 -16 28 -22z m-1405 -11 c0 -6 11 -8 24 -6 22 4 23 3 14 -18
-8 -17 -8 -27 2 -39 10 -13 9 -15 -8 -15 -16 0 -20 -4 -15 -17 6 -15 4 -16 -9
-5 -13 10 -17 10 -21 0 -3 -8 -9 -3 -15 12 -5 14 -12 24 -16 23 -19 -8 -28 -2
-17 11 10 11 8 17 -6 25 -16 9 -16 10 6 11 19 0 21 3 12 14 -10 11 -8 15 6 18
23 5 43 -1 43 -14z m2164 0 c-4 -6 -1 -9 7 -6 16 5 49 -51 41 -70 -6 -17 -21
-2 -27 28 -5 25 -15 40 -15 22 0 -7 -5 -12 -11 -12 -6 0 -9 6 -6 13 2 6 0 20
-5 29 -6 14 -5 16 7 12 8 -3 12 -11 9 -16z m-1651 -41 c-4 -6 5 -7 21 -3 29 7
34 -5 11 -24 -8 -7 -13 -16 -10 -19 2 -4 -2 -8 -10 -8 -13 0 -19 8 -25 32 -1
6 -6 20 -11 32 -8 21 -7 22 11 11 10 -7 16 -16 13 -21z m1293 -7 c0 -11 -3
-20 -6 -20 -13 0 -28 23 -23 36 7 19 29 7 29 -16z m434 26 c0 -11 -19 -15 -25
-6 -3 5 1 10 9 10 9 0 16 -2 16 -4z m-760 -16 c0 -5 -5 -10 -11 -10 -5 0 -7 5
-4 10 3 6 8 10 11 10 2 0 4 -4 4 -10z m275 -18 c-3 -3 -11 0 -18 7 -9 10 -8
11 6 5 10 -3 15 -9 12 -12z m-955 -23 c0 -6 -4 -7 -10 -4 -5 3 -10 11 -10 16
0 6 5 7 10 4 6 -3 10 -11 10 -16z m-930 -31 c0 -5 -4 -8 -10 -8 -5 0 -10 10
-10 23 0 18 2 19 10 7 5 -8 10 -18 10 -22z m1580 22 c-19 -13 -30 -13 -30 0 0
6 10 10 23 10 18 0 19 -2 7 -10z m-1548 -25 c-3 -14 1 -16 23 -11 19 5 25 3
20 -5 -4 -6 -18 -9 -31 -6 -14 2 -27 0 -30 -4 -3 -5 0 -9 7 -9 10 0 10 -3 1
-12 -7 -7 -12 -23 -13 -37 l0 -26 -12 23 c-8 18 -17 22 -36 19 l-26 -5 23 19
24 19 -26 11 c-30 14 -34 29 -7 29 10 0 26 -10 35 -22 9 -13 15 -18 12 -12 -3
7 1 17 9 24 8 7 12 17 8 22 -3 6 0 8 8 6 8 -3 13 -13 11 -23z m1578 15 c0 -5
-5 -10 -11 -10 -5 0 -7 5 -4 10 3 6 8 10 11 10 2 0 4 -4 4 -10z m54 -5 c-4 -8
-8 -15 -10 -15 -2 0 -4 7 -4 15 0 8 4 15 10 15 5 0 7 -7 4 -15z m-709 -6 c11
-17 -1 -21 -15 -4 -8 9 -8 15 -2 15 6 0 14 -5 17 -11z m332 -15 c-3 -3 -12 -4
-19 -1 -8 3 -5 6 6 6 11 1 17 -2 13 -5z m-1236 -61 c13 -15 12 -15 -8 -4 -24
12 -29 21 -14 21 5 0 15 -7 22 -17z m2159 -1 c0 -13 -12 -22 -22 -16 -10 6 -1
24 13 24 5 0 9 -4 9 -8z m-506 -38 c3 -8 2 -12 -4 -9 -6 3 -10 1 -10 -4 0 -6
5 -11 11 -11 11 0 39 -24 39 -34 0 -11 -21 -6 -35 7 -14 15 -48 15 -79 2 -11
-5 -26 -3 -37 3 -12 8 -60 11 -131 10 l-113 -2 85 -5 85 -6 -55 -9 c-30 -4
-63 -13 -73 -18 -35 -18 -69 -19 -87 -3 -10 9 -23 15 -31 13 -24 -6 -22 31 3
37 29 7 185 10 296 5 74 -3 85 -2 105 18 26 26 23 26 31 6z m578 -26 c-6 -6
-7 0 -4 19 5 21 7 23 10 9 2 -10 0 -22 -6 -28z m-1065 1 c3 -24 3 -24 -7 -2
-6 16 -15 21 -27 17 -15 -5 -16 -4 -3 5 21 15 35 8 37 -20z m540 -16 c-11 -10
-27 8 -27 30 l0 21 16 -22 c9 -13 14 -26 11 -29z m467 -84 c-5 -8 2 -10 22 -6
26 5 27 4 10 -8 -14 -11 -22 -11 -36 -2 -19 11 -18 27 1 27 6 0 7 -5 3 -11z
m136 7 c0 -2 -7 -7 -16 -10 -8 -3 -12 -2 -9 4 6 10 25 14 25 6z m-410 -39 c0
-7 5 -4 11 6 12 21 25 22 33 1 3 -8 2 -12 -4 -9 -14 9 -12 -9 2 -23 9 -9 8
-12 -5 -12 -11 0 -15 -6 -11 -17 5 -16 4 -16 -6 0 -10 15 -14 16 -28 5 -13
-11 -15 -10 -9 10 6 23 5 24 -16 5 l-21 -18 18 28 c14 24 15 31 4 44 -12 15
-11 15 10 4 12 -6 22 -17 22 -24z m-518 5 c3 -11 0 -19 -7 -19 -10 0 -12 13
-6 35 3 7 9 0 13 -16z m653 -22 c3 -5 2 -10 -4 -10 -5 0 -13 5 -16 10 -3 6 -2
10 4 10 5 0 13 -4 16 -10z m-728 -16 c-16 -9 -31 -13 -34 -10 -3 3 5 10 18 15
37 15 47 12 16 -5z m947 1 c-7 -18 -20 -19 -30 -3 -4 7 -3 8 4 4 7 -4 12 -2
12 3 0 6 4 11 10 11 5 0 7 -7 4 -15z m-17 -61 c-4 -15 -5 -14 -6 4 -1 15 -5
21 -13 16 -7 -5 -8 -3 -3 5 10 18 28 -2 22 -25z m-130 -15 c-14 -8 -16 -14 -6
-25 17 -20 3 -30 -18 -13 -11 9 -14 10 -9 2 4 -7 2 -13 -3 -13 -6 0 -11 5 -11
12 0 18 31 48 49 48 13 -1 13 -2 -2 -11z m-47 -14 c-7 -8 -16 -12 -21 -9 -16
9 -10 20 12 21 17 2 18 -1 9 -12z m-845 -23 c-5 -13 -3 -13 13 1 23 21 32 22
32 3 0 -8 -8 -16 -17 -19 -14 -3 -11 -7 12 -17 29 -13 29 -14 7 -18 -18 -3
-22 -8 -17 -25 6 -21 5 -21 -8 -4 -13 16 -15 16 -21 2 -8 -23 -25 -9 -19 15 4
15 0 20 -16 20 -13 0 -19 4 -16 10 4 6 11 8 16 5 5 -4 9 7 9 24 0 23 4 29 16
24 9 -3 13 -12 9 -21z m1035 -39 c0 -13 3 -14 12 -5 15 15 32 16 23 2 -3 -5 1
-10 9 -10 9 0 16 -4 16 -10 0 -5 -5 -10 -12 -10 -6 0 -3 -10 8 -22 17 -19 17
-21 2 -15 -12 4 -18 1 -18 -9 0 -10 -4 -12 -12 -7 -20 12 -31 11 -50 -5 -16
-13 -18 -13 -18 1 0 10 -8 17 -17 17 -17 1 -17 1 0 11 17 10 17 13 3 34 -14
21 -14 24 1 29 8 4 22 1 29 -5 12 -10 13 -9 8 5 -3 9 -1 16 5 16 6 0 11 -8 11
-17z m-663 -47 c-12 -18 -25 -32 -29 -30 -10 6 16 53 32 58 8 2 16 4 17 5 1 0
-8 -14 -20 -33z m-287 -11 c0 -8 -7 -15 -15 -15 -9 0 -12 6 -9 15 4 8 10 15
15 15 5 0 9 -7 9 -15z m350 -150 c0 -8 9 -15 20 -15 25 0 27 -20 3 -20 -16 -1
-16 -2 1 -15 17 -13 18 -15 3 -15 -9 0 -17 -7 -17 -16 0 -8 -5 -12 -11 -8 -6
3 -15 0 -20 -7 -6 -9 -8 0 -7 27 1 22 -2 46 -6 52 -5 8 -2 10 9 6 11 -5 14 -2
9 10 -3 9 -1 16 5 16 6 0 11 -7 11 -15z m-332 -37 c8 -10 5 -13 -11 -14 -12 0
-31 -4 -42 -8 -14 -6 16 19 41 33 1 1 6 -5 12 -11z m-81 -34 c-3 -3 -12 -4
-19 -1 -8 3 -5 6 6 6 11 1 17 -2 13 -5z m410 -118 c-3 -8 -1 -17 6 -19 7 -2
10 -7 7 -10 -11 -12 -31 10 -24 26 3 9 8 17 11 17 3 0 3 -6 0 -14z m-454 -13
c-7 -2 -19 -2 -25 0 -7 3 -2 5 12 5 14 0 19 -2 13 -5z m481 -48 c3 -8 1 -15
-4 -15 -6 0 -10 7 -10 15 0 8 2 15 4 15 2 0 6 -7 10 -15z m-84 -20 c-7 -9 -15
-13 -17 -11 -7 7 7 26 19 26 6 0 6 -6 -2 -15z"/>
<path d="M92 1774 c-7 -8 -8 -14 -3 -14 10 0 25 19 20 25 -2 1 -10 -3 -17 -11z"/>
<path d="M612 1751 c-11 -7 -11 -9 1 -14 9 -3 18 1 21 9 6 16 -2 18 -22 5z"/>
<path d="M1885 1750 c-3 -5 -1 -10 4 -10 6 0 11 5 11 10 0 6 -2 10 -4 10 -3 0
-8 -4 -11 -10z"/>
<path d="M65 1710 c-3 -5 -1 -10 4 -10 6 0 11 5 11 10 0 6 -2 10 -4 10 -3 0
-8 -4 -11 -10z"/>
<path d="M1410 1670 c0 -5 5 -10 11 -10 5 0 7 5 4 10 -3 6 -8 10 -11 10 -2 0
-4 -4 -4 -10z"/>
<path d="M70 1330 c0 -5 5 -10 11 -10 5 0 7 5 4 10 -3 6 -8 10 -11 10 -2 0 -4
-4 -4 -10z"/>
<path d="M313 1333 c20 -2 54 -2 75 0 20 2 3 4 -38 4 -41 0 -58 -2 -37 -4z"/>
<path d="M878 1309 c-51 -26 -60 -47 -53 -124 6 -61 -3 -100 -26 -115 -5 -4
-10 -22 -11 -42 -2 -20 -6 -34 -10 -31 -13 7 -9 -7 9 -38 15 -26 23 -29 66
-29 46 0 48 1 36 18 -12 15 -12 16 1 6 20 -15 68 -26 80 -19 6 4 4 20 -5 41
-12 30 -12 34 1 34 12 0 19 -13 12 -23 -2 -2 3 -11 11 -20 7 -10 10 -17 5 -18
-32 -2 42 -18 89 -18 44 -1 57 2 57 14 0 17 35 55 50 55 18 0 11 -15 -12 -25
-13 -6 -24 -18 -26 -28 -3 -16 4 -18 55 -18 32 0 72 0 90 0 51 -1 73 16 74 59
0 20 3 46 6 57 6 26 4 192 -3 228 -5 22 -11 27 -35 27 -16 0 -29 4 -29 10 0 5
-15 9 -32 9 -18 -1 -44 2 -58 7 -23 7 -24 6 -11 -9 7 -10 20 -16 29 -15 8 2
17 -3 19 -9 6 -17 -17 -16 -36 1 -22 20 -158 4 -176 -21 -7 -10 -19 -14 -29
-10 -10 4 -19 1 -22 -8 -8 -20 -54 -20 -54 0 0 11 -7 14 -27 10 -27 -6 -27 -5
-7 7 12 7 19 19 17 26 -3 8 7 12 33 12 45 0 42 5 -6 13 -23 3 -48 -2 -72 -14z
m399 -94 c0 -8 -4 -12 -9 -9 -5 3 -6 10 -3 15 9 13 12 11 12 -6z m-100 -61 c3
-31 -15 -68 -23 -47 -3 7 -13 9 -21 6 -12 -5 -15 -2 -10 11 4 11 1 19 -9 23
-13 5 -13 8 -2 15 10 7 10 11 1 15 -22 8 -14 25 8 18 17 -6 20 -4 13 6 -6 10
-1 9 16 -2 14 -9 25 -27 27 -45z m97 -7 c6 14 9 15 15 4 7 -10 13 -11 32 -1
20 10 22 10 12 0 -10 -11 -9 -16 5 -27 12 -11 14 -16 4 -19 -6 -3 -10 -10 -6
-15 3 -5 0 -9 -7 -9 -7 0 -9 -8 -6 -21 5 -20 5 -20 -14 -3 -18 16 -19 16 -19
-5 0 -20 -2 -21 -15 -7 -9 8 -17 29 -18 45 -1 21 -9 33 -26 41 -20 9 -22 13
-11 20 10 6 20 4 31 -6 15 -13 17 -13 23 3z m-24 -67 c0 -5 -5 -10 -11 -10 -5
0 -7 5 -4 10 3 6 8 10 11 10 2 0 4 -4 4 -10z m-375 -78 c-17 -15 -32 -27 -33
-26 -9 6 34 53 48 54 9 0 4 -10 -15 -28z m428 -12 c-4 -13 1 -26 13 -35 17
-13 16 -14 -15 -10 -19 2 -38 8 -44 14 -14 14 -1 42 18 35 8 -3 15 -1 15 5 0
6 4 11 9 11 5 0 7 -9 4 -20z"/>
<path d="M497 1314 c-5 -6 -156 -23 -234 -27 -28 -2 -33 -6 -34 -27 0 -25 0
-25 -9 -2 -12 29 -28 28 -40 -4 -15 -38 -12 -43 18 -35 29 8 83 -1 66 -11 -5
-4 -16 -3 -23 2 -8 4 -26 4 -42 0 -15 -5 -30 -6 -33 -2 -3 3 -6 0 -6 -6 0 -7
-15 -18 -34 -26 -36 -15 -52 -50 -40 -89 11 -38 78 -147 94 -152 8 -2 40 0 70
5 54 9 362 6 408 -4 16 -4 31 2 46 18 22 21 23 29 20 137 -2 63 -7 134 -12
158 l-7 45 -60 3 c-33 1 -73 7 -89 13 -33 11 -50 13 -59 4z m41 -132 c6 6 15
8 19 4 4 -4 1 -11 -7 -16 -13 -8 -12 -10 2 -10 14 0 16 -4 8 -25 -5 -14 -6
-33 -3 -42 6 -16 5 -16 -10 -4 -15 12 -17 11 -17 -3 0 -9 -4 -16 -10 -16 -5 0
-10 6 -10 13 0 8 -3 7 -10 -3 -8 -12 -10 -12 -16 3 -4 10 -13 16 -20 13 -19
-7 -17 4 4 21 15 13 14 14 -14 11 -17 -2 -36 2 -43 10 -11 11 -10 13 10 11 29
-2 61 10 54 21 -3 5 3 13 12 19 13 7 21 6 29 -4 8 -11 14 -11 22 -3z m-310
-23 c26 -7 50 -15 54 -18 15 -13 -77 2 -97 15 -24 17 -17 17 43 3z m114 -66
c-5 -10 -12 -25 -15 -33 -3 -8 -4 0 -4 17 1 19 7 33 15 33 9 0 10 -5 4 -17z
m335 -113 c-3 -11 0 -20 6 -21 7 0 3 -4 -8 -8 -12 -5 -25 -3 -33 6 -7 7 -18
13 -24 13 -6 0 -9 3 -6 6 4 3 16 1 27 -6 18 -9 21 -8 21 10 0 11 5 20 11 20 6
0 9 -9 6 -20z m38 0 c-3 -5 -12 -10 -18 -10 -7 0 -6 4 3 10 19 12 23 12 15 0z
m-475 -4 c0 -2 -7 -9 -15 -16 -13 -11 -14 -10 -9 4 5 14 24 23 24 12z"/>
<path d="M2024 1309 c-3 -6 0 -17 7 -25 13 -15 15 -271 2 -324 -7 -31 -31 -60
-50 -60 -10 0 -8 -8 8 -29 21 -29 21 -29 41 -9 11 11 26 17 33 14 16 -6 49 29
41 42 -3 6 -14 8 -25 5 -27 -7 -32 27 -27 193 3 114 7 149 20 162 14 17 13 19
-14 29 -19 7 -32 8 -36 2z"/>
<path d="M1010 1300 c8 -5 20 -10 25 -10 6 0 3 5 -5 10 -8 5 -19 10 -25 10 -5
0 -3 -5 5 -10z"/>
<path d="M2478 1303 c7 -3 16 -2 19 1 4 3 -2 6 -13 5 -11 0 -14 -3 -6 -6z"/>
<path d="M2682 1161 c-10 -16 -11 -26 -3 -34 15 -15 23 -3 19 30 l-3 28 -13
-24z"/>
<path d="M746 1042 c-3 -5 1 -9 9 -9 8 0 12 4 9 9 -3 4 -7 8 -9 8 -2 0 -6 -4
-9 -8z"/>
<path d="M722 940 c-25 -21 -28 -33 -9 -47 8 -6 19 -3 34 12 17 16 19 23 9 37
-11 14 -13 14 -34 -2z"/>
<path d="M1372 929 c-7 -10 -18 -19 -26 -19 -11 0 -10 -6 3 -33 15 -31 17 -32
26 -13 6 11 19 25 30 31 20 10 20 10 0 32 -21 21 -21 21 -33 2z"/>
<path d="M508 923 c6 -2 18 -2 25 0 6 3 1 5 -13 5 -14 0 -19 -2 -12 -5z"/>
<path d="M70 910 c0 -5 4 -10 9 -10 6 0 13 5 16 10 3 6 -1 10 -9 10 -9 0 -16
-4 -16 -10z"/>
<path d="M198 913 c7 -3 16 -2 19 1 4 3 -2 6 -13 5 -11 0 -14 -3 -6 -6z"/>
<path d="M230 916 c0 -2 8 -10 17 -17 11 -10 14 -10 9 -1 -10 18 19 15 34 -3
7 -8 19 -15 26 -15 8 0 14 -4 14 -10 0 -5 -9 -10 -20 -10 -13 0 -18 -5 -14
-15 5 -11 2 -13 -10 -9 -10 4 -25 -1 -37 -12 -19 -17 -20 -17 -13 1 6 14 4 16
-6 10 -10 -6 -12 -4 -7 8 4 10 0 17 -11 20 -12 3 -11 5 6 6 12 0 22 6 22 12 0
6 -19 9 -47 7 -35 -2 -47 -7 -45 -17 2 -8 -4 -29 -14 -46 -16 -30 -16 -33 1
-58 9 -15 23 -27 30 -27 20 0 25 -26 10 -47 -17 -22 -19 -37 -4 -27 6 3 3 -6
-7 -21 -14 -22 -16 -32 -7 -56 8 -20 8 -30 -1 -34 -6 -3 1 -3 16 -2 19 3 34
-3 48 -18 15 -16 30 -22 48 -19 15 2 56 4 92 4 36 0 80 5 99 11 26 9 43 8 73
-2 34 -11 37 -14 22 -21 -13 -6 -9 -7 13 -4 24 4 31 2 27 -8 -6 -16 11 -14
-237 -19 l-209 -4 -24 -47 c-29 -58 -29 -57 1 -130 17 -42 21 -63 14 -72 -7
-8 -7 -14 1 -19 17 -11 11 -32 -12 -40 l-23 -8 22 -4 c12 -2 24 -14 27 -29 10
-37 70 -34 126 7 41 30 45 30 116 24 41 -3 98 -11 127 -16 64 -12 103 -12 127
1 10 6 28 10 39 10 20 0 21 5 21 155 0 147 -1 155 -22 175 -15 14 -30 19 -45
15 -13 -3 -23 -1 -23 5 0 5 6 10 14 10 8 0 27 10 41 23 23 19 27 31 30 99 4
61 9 82 25 98 18 18 20 18 21 3 0 -10 2 -43 4 -73 5 -92 14 -119 44 -126 14
-3 40 -9 57 -14 22 -5 48 -2 83 10 43 14 58 15 87 5 19 -6 31 -15 27 -20 -5
-4 0 -5 9 -2 12 4 21 -1 29 -14 11 -21 10 -21 -73 -14 -113 9 -200 7 -232 -5
-26 -10 -26 -10 -11 -40 9 -16 13 -31 10 -31 -3 -1 -11 -2 -17 -3 -19 -2 -10
-46 13 -67 19 -16 20 -22 9 -54 -7 -20 -9 -53 -6 -73 5 -29 4 -34 -4 -22 -10
13 -11 13 -7 0 2 -8 9 -16 15 -16 7 -1 17 -2 23 -3 8 -1 9 -5 0 -14 -6 -8 -7
-18 -3 -22 4 -5 1 -5 -6 -1 -7 4 -9 12 -6 18 4 6 2 8 -3 5 -6 -4 -13 -15 -15
-24 -4 -15 3 -18 50 -21 42 -2 58 -8 72 -25 10 -12 18 -23 17 -24 -1 0 -37 2
-80 7 -52 5 -84 13 -97 25 -19 17 -20 17 -20 -3 0 -12 -4 -22 -10 -22 -5 0 -7
6 -5 12 4 10 -40 12 -202 11 -244 -3 -350 -11 -315 -24 12 -5 22 -13 22 -19 0
-7 5 -8 13 -3 17 11 527 4 622 -8 73 -10 140 -8 381 8 38 2 87 4 109 3 204 -5
359 -4 368 2 7 4 -22 8 -62 8 -50 0 -72 3 -65 10 5 5 22 11 36 12 15 1 24 6
22 10 -3 5 -10 6 -15 2 -5 -3 -8 0 -7 8 2 8 -6 12 -22 10 -22 -2 -26 1 -24 25
0 15 -4 31 -10 35 -6 5 -1 8 12 8 14 0 22 6 22 17 0 9 3 13 7 10 3 -4 13 -1
21 6 13 10 14 8 7 -13 -6 -20 -5 -23 6 -12 18 16 34 15 20 -2 -6 -7 -8 -22 -4
-31 4 -12 3 -16 -5 -11 -20 12 -23 -13 -5 -39 18 -24 63 -35 63 -15 0 6 -8 10
-18 10 -10 0 -19 7 -19 14 0 11 5 12 18 6 12 -7 21 -5 29 5 10 13 15 11 31 -8
10 -12 18 -16 19 -9 0 6 -6 12 -12 12 -8 0 -6 5 3 10 12 7 28 5 54 -5 27 -12
50 -14 93 -8 54 8 57 10 60 38 2 17 7 35 12 40 8 10 13 181 5 173 -4 -4 -12
-49 -14 -82 -1 -5 -4 -6 -8 -2 -11 10 -11 56 -1 50 4 -3 8 14 9 38 0 33 2 38
9 23 7 -17 9 -15 9 12 1 26 -5 35 -29 48 -37 19 -120 36 -120 24 0 -5 -38 -9
-85 -9 l-85 0 0 -27 c0 -42 13 -57 37 -44 18 9 21 7 21 -15 0 -14 -7 -28 -14
-31 -8 -3 -11 -10 -7 -16 4 -6 1 -8 -8 -5 -48 20 -52 21 -46 11 3 -5 -3 -17
-14 -26 -25 -22 -28 -21 -22 4 4 12 -3 32 -16 50 -12 16 -17 29 -12 29 5 0 13
-4 16 -10 3 -6 16 -10 29 -10 20 0 23 5 24 43 l2 43 -121 -2 c-67 -2 -126 -7
-130 -11 -12 -12 -14 -97 -4 -113 5 -8 8 -49 6 -92 -2 -77 -1 -80 34 -120 19
-23 48 -48 63 -54 25 -11 22 -12 -35 -13 -98 -1 -103 7 -105 177 l-2 137 -5
-143 c-5 -112 -9 -145 -21 -152 -8 -5 -81 -10 -162 -10 -129 0 -148 -2 -157
-18 -10 -16 -10 -16 -11 1 0 18 -8 21 -49 17 -14 -1 -21 2 -17 9 4 6 16 11 27
11 10 0 19 5 19 11 0 5 5 7 12 3 6 -4 8 -3 4 4 -3 6 4 20 16 31 28 27 42 27
27 0 -6 -12 -7 -19 -1 -15 5 3 13 -1 16 -9 4 -10 -2 -19 -17 -25 -15 -6 10 -8
77 -7 69 1 101 6 104 15 2 7 20 12 41 12 66 0 68 7 76 186 l7 161 -30 12 c-38
16 -99 5 -113 -20 -5 -11 -6 -19 -2 -19 4 0 8 -18 9 -40 0 -31 -3 -37 -13 -28
-7 6 -13 17 -13 25 0 11 -9 14 -34 11 -19 -2 -32 0 -29 5 3 5 21 7 39 5 19 -2
34 0 34 4 0 4 -7 8 -15 8 -11 0 -9 6 7 22 21 21 21 23 5 26 -31 6 -12 27 26
30 28 2 37 8 37 22 0 10 -7 21 -16 24 -16 6 -16 29 0 26 4 -1 14 7 21 17 18
24 33 8 16 -18 -7 -12 -10 -24 -7 -27 3 -3 6 -2 6 2 0 4 7 0 16 -9 20 -20 11
-33 -11 -15 -12 10 -15 10 -15 -4 0 -19 19 -21 55 -4 23 10 25 17 27 82 4 144
-1 279 -12 290 -6 6 -51 12 -100 12 -75 1 -90 -1 -93 -15 -4 -13 -5 -13 -6 3
-1 12 -6 16 -17 12 -9 -3 -31 -6 -51 -6 -32 0 -33 -1 -17 -17 10 -10 12 -19 6
-21 -6 -2 -9 -11 -6 -20 5 -16 4 -16 -7 -1 -11 15 -14 15 -30 -5 -17 -19 -18
-19 -19 -3 0 10 -4 16 -9 13 -5 -3 -8 6 -8 19 0 14 4 25 9 25 5 0 8 5 6 11 -2
7 -43 11 -117 10 -135 0 -157 -11 -146 -70 4 -20 15 -41 26 -49 10 -7 19 -21
19 -30 0 -13 -3 -11 -16 6 -13 19 -19 21 -30 11 -13 -10 -14 -8 -10 13 5 29
-12 87 -33 112 -23 28 -59 16 -41 -14 7 -11 11 -11 24 -1 9 8 16 10 16 6 0 -4
-8 -14 -17 -22 -13 -10 -15 -16 -5 -19 6 -3 12 -10 12 -15 0 -6 -5 -7 -10 -4
-6 4 -17 1 -25 -5 -12 -10 -15 -9 -15 9 0 18 -3 19 -26 11 -31 -12 -34 -12
-34 -1 0 5 9 13 21 16 20 7 20 7 2 22 -17 13 -16 14 9 9 22 -5 26 -3 22 9 -5
12 -21 14 -88 10 -44 -3 -98 -8 -118 -10 -20 -3 -45 -2 -55 3 -12 4 7 9 52 13
58 4 49 6 -52 7 -68 0 -123 -1 -123 -2z m85 -16 c3 -5 2 -10 -4 -10 -5 0 -13
5 -16 10 -3 6 -2 10 4 10 5 0 13 -4 16 -10z m111 -79 c3 -10 10 -10 32 5 23
15 25 15 13 1 -7 -9 -11 -24 -7 -32 7 -20 -13 -19 -38 2 -12 10 -15 11 -8 3
15 -17 16 -34 2 -25 -6 4 -19 1 -28 -6 -14 -11 -15 -11 -4 1 6 8 12 24 12 36
0 32 12 63 18 43 2 -7 6 -20 8 -28z m747 22 c-3 -7 -1 -13 5 -13 14 0 8 -30
-7 -40 -8 -5 -10 -13 -5 -21 6 -12 5 -12 -9 0 -14 11 -17 11 -18 0 0 -12 -1
-12 -6 0 -5 11 -7 11 -14 0 -6 -10 -8 -7 -7 11 0 14 0 30 -2 35 -5 20 0 36 10
30 6 -3 10 -2 10 3 0 6 11 9 24 8 14 0 22 -6 19 -13z m119 7 c11 0 15 -5 12
-15 -4 -8 -1 -15 6 -15 6 0 8 -5 3 -12 -4 -7 -8 -17 -8 -23 -1 -5 -6 -9 -13
-7 -7 1 -15 -4 -18 -12 -4 -11 -12 -13 -29 -6 -13 5 -26 6 -29 3 -3 -4 -6 -2
-6 3 0 6 5 15 12 22 9 9 8 12 -5 12 -9 0 -17 5 -17 10 0 6 5 10 11 10 8 0 7 5
-1 15 -11 13 -10 14 4 9 9 -4 16 -1 16 6 0 8 8 10 23 6 12 -3 30 -6 39 -6z
m-595 -86 c-3 -3 -12 -4 -19 -1 -8 3 -5 6 6 6 11 1 17 -2 13 -5z m-371 -22
c-10 -2 -22 0 -28 6 -6 6 0 7 19 4 21 -5 23 -7 9 -10z m404 -2 c0 -5 -6 -10
-14 -10 -7 0 -19 -7 -26 -15 -7 -8 -18 -15 -24 -15 -12 0 44 49 57 50 4 0 7
-4 7 -10z m120 -15 c6 -16 14 -23 25 -19 8 3 15 1 15 -5 0 -6 -4 -11 -10 -11
-5 0 -10 -6 -10 -14 0 -8 -6 -13 -12 -12 -21 3 -38 16 -37 29 0 9 2 9 6 0 2
-7 9 -13 15 -13 10 0 8 17 -7 53 -4 9 -4 17 -1 17 4 0 11 -11 16 -25z m320
-48 l23 6 -19 -26 c-20 -28 -34 -34 -34 -15 0 6 -3 8 -6 5 -4 -4 -1 -13 6 -22
7 -9 8 -15 2 -15 -6 0 -17 -3 -25 -6 -11 -4 -13 1 -10 19 4 18 0 26 -16 30
-17 4 -19 2 -11 -13 15 -27 12 -32 -9 -18 -29 18 -9 51 24 42 19 -5 25 -2 25
11 0 13 3 15 13 7 7 -6 24 -8 37 -5z m-770 -26 c0 -13 6 -18 18 -17 18 3 32
-10 32 -32 0 -10 -4 -9 -16 2 -18 19 -36 20 -52 4 -19 -19 -27 0 -9 20 13 14
14 21 5 30 -9 9 -8 12 5 12 10 0 17 -8 17 -19z m50 4 c19 -23 8 -25 -14 -4
-11 11 -15 19 -9 19 6 0 16 -7 23 -15z m460 5 c-20 -13 -33 -13 -25 0 3 6 14
10 23 10 15 0 15 -2 2 -10z m-54 -25 c4 -8 11 -12 17 -8 6 3 -2 -10 -18 -30
-18 -22 -32 -32 -36 -25 -4 6 -12 7 -18 4 -21 -14 -11 23 11 38 18 13 19 16 6
16 -9 0 -20 5 -23 10 -4 6 7 10 25 10 18 0 33 -6 36 -15z m214 -34 c16 -30 13
-46 -5 -31 -12 10 -15 10 -16 -1 0 -10 -2 -10 -5 -2 -3 7 -13 10 -22 7 -9 -3
-5 2 11 11 15 8 27 18 27 21 0 3 -3 3 -7 1 -5 -3 -17 -1 -28 4 -18 7 -17 8 7
8 17 1 31 -6 38 -18z m-190 -17 c0 -8 -5 -12 -10 -9 -6 4 -8 11 -5 16 9 14 15
11 15 -7z m339 -48 c9 -11 9 -16 0 -22 -7 -4 -9 -3 -5 4 3 6 -2 15 -11 21 -10
6 -13 11 -7 11 6 0 17 -6 23 -14z m-539 -68 c0 -6 -7 -7 -16 -4 -9 3 -18 6
-20 6 -3 0 -3 4 1 10 7 11 35 2 35 -12z m-67 -12 c-21 -28 -24 -28 -16 2 3 12
12 22 20 22 11 0 10 -5 -4 -24z m-456 -18 c-3 -7 -5 -2 -5 12 0 14 2 19 5 13
2 -7 2 -19 0 -25z m763 16 c0 3 9 -3 20 -14 24 -24 25 -30 4 -30 -8 0 -12 -5
-9 -10 4 -6 4 -18 1 -27 -5 -12 -9 -13 -21 -3 -12 10 -15 10 -16 -1 0 -10 -2
-10 -5 -2 -3 7 -13 9 -21 6 -13 -5 -15 -2 -10 11 4 9 3 15 -2 12 -11 -7 -21
28 -12 40 14 20 46 32 59 22 6 -6 12 -8 12 -4z m-115 -12 c-3 -3 -11 0 -18 7
-9 10 -8 11 6 5 10 -3 15 -9 12 -12z m210 -12 c-3 -5 -1 -19 5 -30 6 -11 8
-20 6 -20 -10 0 -27 41 -21 50 3 6 8 10 11 10 3 0 2 -4 -1 -10z m-551 -49 c-6
-6 -34 20 -34 32 0 6 8 2 19 -9 10 -10 17 -21 15 -23z m1076 -1 c0 -11 -5 -20
-11 -20 -5 0 -7 -5 -3 -11 4 -8 0 -9 -15 -4 -12 4 -21 2 -21 -4 0 -6 6 -11 13
-11 6 0 4 -5 -5 -11 -10 -5 -18 -17 -18 -24 0 -8 -4 -15 -8 -15 -4 0 -8 9 -8
19 0 11 4 18 7 15 4 -2 10 0 14 6 5 9 -7 14 -27 12 -14 -2 -16 27 -2 32 9 3
12 1 9 -4 -7 -12 15 -13 31 -2 6 4 13 15 17 25 9 23 27 22 27 -3z m-458 -41
c-12 -5 -22 -13 -22 -19 0 -5 -4 -10 -9 -10 -6 0 -9 9 -8 20 1 11 5 20 10 20
5 0 4 7 -3 15 -10 12 -6 11 21 -2 31 -15 32 -17 11 -24z m-678 17 c-8 -22 42
-52 60 -37 10 8 16 9 21 1 3 -5 0 -10 -7 -10 -7 0 -24 -10 -38 -21 -14 -11
-20 -18 -13 -15 14 8 27 -10 18 -25 -5 -7 -13 -5 -24 5 -19 17 -43 4 -35 -19
7 -18 -12 -27 -24 -12 -8 10 -5 20 14 40 18 19 21 27 10 27 -8 0 -18 5 -22 12
-5 8 0 9 14 6 24 -7 25 -6 16 16 -3 9 -12 12 -22 9 -10 -4 -6 3 8 15 30 26 31
26 24 8z m1338 1 c-12 -7 -19 -16 -16 -20 4 -4 2 -7 -4 -7 -7 0 -12 4 -12 10
0 10 29 29 45 29 6 0 0 -5 -13 -12z m-897 -18 c5 -5 -5 -4 -23 2 -17 6 -32 13
-32 16 0 7 43 -8 55 -18z m939 2 c3 -5 -2 -8 -12 -7 -13 1 -16 -5 -14 -24 2
-23 1 -23 -13 -9 -9 9 -13 23 -9 32 6 18 39 23 48 8z m-1447 -18 c-11 -3 -16
-10 -13 -20 3 -8 6 -17 6 -19 0 -3 4 -3 9 1 5 3 13 0 17 -6 4 -8 3 -9 -4 -5
-7 4 -12 2 -12 -5 0 -7 -8 -5 -20 6 -18 17 -20 17 -14 2 5 -13 2 -16 -10 -11
-20 8 -20 15 2 42 9 12 26 21 37 21 18 -1 18 -2 2 -6z m534 -29 c-11 -15 -21
-22 -21 -17 0 5 5 14 12 21 7 7 8 12 3 12 -6 0 -3 4 5 10 23 15 24 3 1 -26z
m-661 22 c0 -3 -4 -8 -10 -11 -5 -3 -10 -1 -10 4 0 6 5 11 10 11 6 0 10 -2 10
-4z m1687 -33 c-8 -7 -37 9 -31 19 3 5 12 4 20 -3 8 -6 13 -14 11 -16z m-1224
0 c-3 -6 -11 -9 -19 -6 -20 7 -17 19 5 19 11 0 17 -6 14 -13z m533 -9 c-3 -8
0 -11 10 -7 10 4 12 0 8 -11 -10 -26 -68 -17 -72 11 -2 14 3 23 15 25 26 6 45
-3 39 -18z m722 -16 c8 -8 15 -8 24 0 11 9 14 6 15 -11 1 -13 -1 -17 -5 -10
-5 7 -13 9 -21 3 -15 -9 -61 7 -61 22 0 12 34 10 48 -4z m-1598 -18 c0 -5 -5
-10 -11 -10 -5 0 -7 5 -4 10 3 6 8 10 11 10 2 0 4 -4 4 -10z m797 -16 c-3 -3
-12 -4 -19 -1 -8 3 -5 6 6 6 11 1 17 -2 13 -5z m-62 -42 c-3 -3 -11 0 -18 7
-9 10 -8 11 6 5 10 -3 15 -9 12 -12z m217 -44 c-9 -9 -12 -7 -12 12 0 19 3 21
12 12 9 -9 9 -15 0 -24z m415 17 c0 -8 -4 -12 -9 -9 -5 3 -6 10 -3 15 9 13 12
11 12 -6z"/>
<path d="M2527 874 c-2 -3 -103 -7 -223 -10 -121 -2 -227 -5 -236 -5 -35 -1
-41 -36 -34 -193 4 -100 11 -153 19 -159 7 -4 30 -5 52 -1 58 10 134 7 150 -6
8 -7 41 -8 96 -4 53 5 76 10 64 15 -18 6 -18 8 -3 14 10 4 14 13 11 23 -4 9
-3 14 2 10 4 -4 16 -3 25 2 13 7 20 6 23 -4 4 -9 14 -12 25 -9 11 2 23 -1 27
-8 5 -7 4 -10 -2 -6 -6 4 -14 0 -17 -8 -4 -12 2 -15 33 -13 32 3 37 6 33 23
-4 20 -4 20 11 0 12 -15 18 -17 29 -7 10 8 18 8 25 1 12 -12 25 177 13 200
-11 21 -23 -22 -16 -57 3 -15 2 -33 -3 -40 -15 -24 -30 40 -20 89 4 24 8 63 9
87 0 35 -3 42 -19 42 -11 0 -22 4 -25 9 -7 10 -43 21 -49 15z m-344 -67 c4 3
7 1 7 -5 0 -17 -26 -15 -44 4 -23 22 -20 27 7 9 13 -8 27 -12 30 -8z m-76 -23
c-3 -3 -16 -4 -29 -2 l-23 5 25 10 c23 10 41 1 27 -13z m410 4 c2 -17 0 -19
-7 -8 -5 8 -6 18 -4 22 8 12 10 10 11 -14z m-377 -36 c0 -5 -7 -17 -15 -28
-14 -19 -14 -19 -15 2 0 11 3 24 7 27 9 10 23 9 23 -1z m30 -35 c0 -5 -4 -5
-10 -2 -5 3 -10 14 -10 23 0 15 2 15 10 2 5 -8 10 -19 10 -23z m251 9 c12 7
24 -26 13 -35 -5 -3 -9 -12 -10 -18 -4 -49 -3 -47 -21 -31 -10 9 -29 19 -41
23 -18 5 -22 12 -18 28 3 12 6 27 6 34 0 8 9 9 31 3 18 -5 36 -7 40 -4z m-201
-67 c0 -7 10 -9 24 -7 19 4 24 1 24 -19 0 -13 -7 -23 -14 -23 -8 0 -14 -6 -15
-12 0 -10 -2 -10 -6 0 -2 6 -19 13 -36 13 -18 1 -25 3 -15 6 18 5 31 30 22 44
-3 5 0 9 5 9 6 0 11 -5 11 -11z m-80 -34 c4 3 6 -4 3 -15 -5 -17 -7 -18 -28
-4 -12 8 -30 11 -40 8 -13 -5 -16 -4 -11 4 4 7 16 12 27 12 10 0 19 6 19 13 0
6 5 4 11 -6 6 -9 14 -15 19 -12z m404 -12 c8 -20 3 -25 -17 -17 -23 8 -28 30
-7 31 10 1 21 -5 24 -14z m66 -33 c-20 -13 -43 -13 -35 0 3 6 16 10 28 10 18
0 19 -2 7 -10z m-285 -10 c3 -5 1 -10 -4 -10 -6 0 -11 5 -11 10 0 6 2 10 4 10
3 0 8 -4 11 -10z m235 0 c0 -5 -2 -10 -4 -10 -3 0 -8 5 -11 10 -3 6 -1 10 4
10 6 0 11 -4 11 -10z"/>
<path d="M2391 698 c-1 -12 -6 -15 -18 -11 -15 5 -16 3 -5 -8 15 -16 37 1 29
23 -4 9 -6 8 -6 -4z"/>
<path d="M2633 824 c0 -23 1 -24 14 -11 9 8 12 20 9 26 -12 19 -23 12 -23 -15z"/>
<path d="M2013 770 c0 -25 2 -35 4 -22 2 12 2 32 0 45 -2 12 -4 2 -4 -23z"/>
<path d="M2013 655 c0 -27 2 -38 4 -22 2 15 2 37 0 50 -2 12 -4 0 -4 -28z"/>
<path d="M2011 563 c-1 -31 -7 -46 -25 -60 -23 -18 -23 -20 -6 -41 16 -19 20
-20 30 -7 7 8 22 15 33 15 20 0 20 0 1 21 -10 11 -21 41 -25 67 l-6 47 -2 -42z"/>
<path d="M190 525 c0 -8 0 -18 -1 -22 0 -4 5 -9 12 -12 7 -2 9 1 4 10 -6 11
-5 12 6 2 9 -9 45 -12 119 -11 l105 2 -100 3 c-83 3 -102 7 -118 23 -21 24
-27 25 -27 5z"/>
<path d="M697 525 c-13 -9 -11 -13 16 -28 37 -22 51 -10 21 19 -17 16 -25 18
-37 9z"/>
<path d="M1344 517 l-22 -22 22 -26 21 -25 21 22 c18 18 19 24 8 28 -8 3 -18
14 -22 25 -7 19 -8 19 -28 -2z"/>
<path d="M1631 530 c-8 -4 -11 -15 -8 -23 5 -12 -3 -17 -31 -20 -35 -3 -34 -4
9 -5 35 -2 46 2 46 13 0 8 -5 15 -11 15 -6 0 -4 4 4 10 8 5 12 11 9 14 -2 3
-11 1 -18 -4z"/>
<path d="M83 488 c-2 -17 0 -18 15 -7 9 8 18 14 20 15 1 1 -5 4 -16 6 -12 4
-18 -1 -19 -14z"/>
<path d="M2458 503 c7 -3 16 -2 19 1 4 3 -2 6 -13 5 -11 0 -14 -3 -6 -6z"/>
<path d="M1033 493 c9 -2 25 -2 35 0 9 3 1 5 -18 5 -19 0 -27 -2 -17 -5z"/>
<path d="M1678 483 c7 -3 16 -2 19 1 4 3 -2 6 -13 5 -11 0 -14 -3 -6 -6z"/>
<path d="M2367 464 c-1 -1 -44 -4 -95 -5 -51 -2 -95 -6 -98 -10 -9 -15 8 -38
23 -32 12 5 14 3 7 -8 -13 -21 -11 -42 6 -64 15 -19 14 -20 -6 -2 -11 9 -23
17 -27 17 -3 0 -8 -8 -10 -17 -4 -16 -5 -16 -6 1 -1 18 -2 19 -21 1 -20 -18
-20 -18 -16 16 2 22 -2 41 -13 53 -15 18 -15 19 12 12 22 -5 27 -3 27 13 0 16
-7 18 -51 16 -72 -4 -80 -15 -81 -120 -1 -75 1 -90 17 -101 17 -13 17 -14 2
-14 -13 0 -17 -9 -17 -40 0 -47 20 -61 83 -61 49 0 107 -16 107 -30 0 -5 25
-9 55 -9 44 0 55 3 55 16 0 14 -3 14 -15 4 -12 -10 -15 -10 -15 3 0 9 5 19 10
22 8 5 7 11 -1 21 -9 11 -8 14 5 14 11 0 15 5 11 13 -4 6 0 4 9 -6 8 -11 12
-25 9 -33 -3 -7 2 -21 11 -29 17 -17 19 -14 19 36 0 9 6 16 13 16 8 0 14 -5
14 -11 0 -6 20 -22 45 -35 40 -21 48 -23 70 -11 14 7 25 17 25 22 0 5 -4 7 -8
4 -4 -2 -14 -1 -22 5 -11 6 -12 9 -2 9 8 0 10 5 6 12 -5 8 -2 9 10 5 9 -4 15
-3 12 2 -7 11 18 33 27 24 4 -3 7 -19 7 -35 0 -26 2 -28 21 -17 17 9 19 13 8
20 -16 10 -21 49 -7 49 6 0 8 -6 5 -14 -4 -9 3 -16 16 -20 20 -5 20 -6 2 -26
-14 -15 -15 -20 -4 -21 8 -1 4 -4 -8 -7 -16 -5 -20 -11 -13 -21 7 -12 14 -8
39 18 17 18 31 28 31 22 0 -15 -45 -61 -62 -62 -7 -1 -17 -2 -23 -4 -5 -1
-106 -3 -224 -3 -118 -1 -212 -4 -210 -6 2 -2 105 -6 228 -9 244 -6 255 -4
322 55 23 20 25 25 12 37 -12 11 -12 15 -2 22 7 4 19 3 26 -2 15 -13 36 -2 26
14 -4 7 -8 36 -9 64 0 29 -4 56 -8 60 -4 4 -25 6 -46 4 -36 -2 -41 1 -51 26
-6 15 -9 47 -6 70 3 31 0 46 -11 55 -14 11 -15 10 -9 -7 6 -17 4 -17 -9 3 -18
24 -74 32 -74 10 0 -10 -2 -10 -9 0 -5 9 -29 12 -74 11 -37 -1 -68 -3 -70 -5z
m243 -64 c0 -11 -4 -20 -10 -20 -5 0 -10 9 -10 20 0 11 5 20 10 20 6 0 10 -9
10 -20z m-337 -77 c-7 -2 -19 -2 -25 0 -7 3 -2 5 12 5 14 0 19 -2 13 -5z m334
-15 c-3 -8 -6 -5 -6 6 -1 11 2 17 5 13 3 -3 4 -12 1 -19z m-347 -13 c11 -13
10 -14 -4 -9 -9 3 -16 10 -16 15 0 13 6 11 20 -6z m-156 -28 c-1 -13 2 -15 20
-6 l21 10 -21 -18 -21 -18 21 -18 c18 -16 19 -18 3 -13 -10 3 -25 6 -33 6 -7
0 -11 6 -8 14 3 9 -5 15 -25 19 -28 6 -45 27 -21 27 6 0 10 -4 10 -10 0 -19
22 -10 27 10 6 24 29 21 27 -3z m546 -44 c0 -48 -3 -63 -10 -53 -12 18 -11
120 1 120 5 0 9 -30 9 -67z m-594 -31 c-8 -9 -19 -13 -22 -9 -4 4 1 15 12 26
23 22 33 6 10 -17z m470 2 c-4 -9 -9 -15 -11 -12 -3 3 -3 13 1 22 4 9 9 15 11
12 3 -3 3 -13 -1 -22z m-166 -2 c0 -5 -7 -9 -15 -9 -8 0 -12 4 -9 9 3 4 9 8
15 8 5 0 9 -4 9 -8z m-220 -22 c0 -5 -5 -10 -11 -10 -5 0 -7 5 -4 10 3 6 8 10
11 10 2 0 4 -4 4 -10z m137 -52 c-3 -8 -6 -5 -6 6 -1 11 2 17 5 13 3 -3 4 -12
1 -19z"/>
<path d="M2002 355 c0 -16 2 -22 5 -12 2 9 2 23 0 30 -3 6 -5 -1 -5 -18z"/>
<path d="M1972 150 c0 -19 2 -27 5 -17 2 9 2 25 0 35 -3 9 -5 1 -5 -18z"/>
<path d="M1986 95 c-10 -15 -15 -29 -13 -32 3 -2 25 -6 49 -9 24 -2 35 -1 25
2 -10 3 -24 19 -31 36 l-13 29 -17 -26z"/>
<path d="M2546 101 c-4 -6 -13 -8 -19 -5 -9 5 -9 4 -1 -5 16 -17 46 -10 35 8
-6 9 -11 10 -15 2z"/>
<path d="M1758 53 c23 -2 59 -2 80 0 20 2 1 4 -43 4 -44 0 -61 -2 -37 -4z"/>
</g>
</svg>
