<?xml version="1.0" standalone="no"?>
<!DOCTYPE svg PUBLIC "-//W3C//DTD SVG 20010904//EN"
 "http://www.w3.org/TR/2001/REC-SVG-20010904/DTD/svg10.dtd">
<svg version="1.0" xmlns="http://www.w3.org/2000/svg"
 width="275.000000pt" height="183.000000pt" viewBox="0 0 275.000000 183.000000"
 preserveAspectRatio="xMidYMid meet">

<g transform="translate(0.000000,183.000000) scale(0.100000,-0.100000)"
fill="#000000" stroke="none">
<path d="M1425 1780 c-50 -35 -80 -49 -105 -50 -19 0 -42 -5 -50 -11 -12 -9
-12 -10 3 -5 10 3 25 0 32 -8 12 -12 12 -15 -3 -22 -9 -4 -20 -7 -23 -6 -4 1
-13 -13 -20 -30 -7 -17 -24 -43 -37 -57 -33 -36 -51 -72 -63 -134 -22 -102
-20 -118 23 -167 61 -69 131 -188 131 -221 0 -35 -45 -86 -102 -115 -32 -16
-36 -22 -25 -32 8 -8 14 -8 14 -2 0 5 11 10 25 10 26 0 34 -14 13 -24 -7 -3
-1 -4 15 -1 20 4 27 1 27 -10 0 -8 -4 -15 -10 -15 -5 0 -10 -6 -10 -12 0 -7
-14 -26 -32 -41 -21 -18 -25 -24 -11 -18 12 6 53 11 92 11 60 0 72 3 81 20 6
11 18 20 28 20 9 0 32 9 50 20 27 17 32 25 32 58 0 42 36 102 84 139 14 11 23
23 20 26 -3 3 1 5 8 4 34 -1 43 5 44 28 1 18 -3 25 -16 25 -10 0 -23 7 -30 15
-7 8 -25 15 -41 15 -25 0 -29 4 -29 26 0 23 -3 25 -24 20 -17 -4 -26 -1 -30
10 -9 23 -8 24 16 24 12 0 19 3 15 6 -12 12 -56 -6 -62 -26 -3 -11 -11 -20
-16 -20 -6 0 -8 4 -4 9 3 5 1 13 -5 16 -6 4 -16 -6 -23 -24 -6 -17 -18 -31
-27 -32 -12 0 -11 -2 2 -7 16 -6 14 -10 -11 -35 -16 -15 -35 -27 -41 -27 -24
0 1 74 46 137 44 62 139 153 160 153 12 0 42 30 43 43 2 24 14 57 22 57 5 0 9
6 9 14 0 21 88 81 145 99 82 25 111 27 166 11 28 -9 60 -13 70 -11 11 3 17 1
13 -4 -3 -5 1 -9 9 -9 35 0 143 -68 213 -133 61 -56 76 -67 70 -47 -4 14 -9
54 -11 90 l-4 65 15 -70 c8 -38 13 -80 11 -93 -3 -15 7 -41 28 -73 49 -72 60
-136 46 -254 -10 -79 -10 -100 1 -114 64 -88 77 -111 72 -125 -7 -18 -29 -21
-39 -7 -3 5 -19 12 -35 16 -17 4 -37 16 -45 27 -14 21 -14 21 -24 -5 -13 -32
-27 -35 -34 -6 -4 16 -9 19 -24 11 -10 -5 -24 -7 -30 -5 -23 8 -14 -23 17 -57
17 -18 30 -29 30 -23 0 18 30 24 89 17 l56 -6 0 -77 c0 -64 4 -82 23 -105 18
-24 20 -32 10 -45 -12 -14 -11 -14 5 -2 9 7 27 30 38 51 19 33 27 38 84 49 38
8 85 10 119 6 l56 -7 0 432 0 433 -22 -19 c-13 -10 -47 -42 -76 -70 -42 -41
-50 -53 -37 -58 14 -5 12 -11 -12 -46 -30 -43 -44 -48 -63 -25 -7 8 -19 15
-26 15 -8 0 -11 -6 -8 -15 13 -33 -42 -10 -93 38 -18 16 -29 35 -26 40 3 6 1
7 -5 3 -13 -8 -53 65 -58 105 -3 24 1 27 37 33 31 5 40 10 35 22 -3 8 -2 13 3
10 5 -3 12 -18 16 -33 4 -16 16 -50 27 -76 26 -59 38 -46 31 32 -5 50 -2 61
22 96 28 42 62 62 78 46 5 -5 15 -7 21 -5 7 3 20 -4 30 -15 17 -18 16 -20 -4
-34 -18 -12 -19 -15 -5 -21 9 -3 13 -2 10 4 -3 6 0 10 7 10 17 0 36 49 33 82
-1 12 0 15 2 6 6 -24 16 -22 28 5 6 12 20 26 33 32 18 8 22 18 22 57 l0 48
-76 0 c-62 0 -82 -4 -106 -21 -16 -12 -64 -34 -106 -50 -63 -23 -72 -25 -52
-9 14 11 30 20 36 20 5 0 18 6 27 13 15 11 14 12 -13 13 -16 1 -27 -3 -24 -7
3 -5 -7 -9 -23 -9 -15 0 -41 -9 -58 -21 -16 -11 -43 -27 -59 -35 l-29 -16 7
29 c4 15 23 43 44 60 l37 33 -30 0 c-25 0 -33 -6 -42 -31 -9 -24 -17 -30 -35
-27 -13 2 -24 10 -24 18 -1 8 -2 21 -3 28 -2 21 -88 15 -111 -8 -25 -25 -31
-25 -61 -2 -21 16 -49 19 -249 20 -165 2 -221 0 -210 -8 15 -12 -4 -11 -70 3
-19 4 -42 -6 -95 -43z m440 31 c-11 -9 -97 -32 -103 -26 -2 2 18 10 45 18 59
18 70 20 58 8z m645 -603 c0 -2 -9 -27 -20 -56 -11 -29 -20 -69 -20 -89 0 -47
-7 -39 -26 28 -9 30 -18 62 -21 71 -4 13 4 22 28 33 31 13 59 19 59 13z m-910
-59 c0 -5 -7 -9 -15 -9 -15 0 -20 12 -9 23 8 8 24 -1 24 -14z m-290 -269 c0
-5 -4 -10 -10 -10 -5 0 -10 5 -10 10 0 6 5 10 10 10 6 0 10 -4 10 -10z"/>
<path d="M13 1763 c-9 -3 -7 -11 7 -25 13 -14 18 -29 14 -45 -5 -20 -3 -23 24
-23 16 0 47 6 68 13 22 8 66 12 101 11 52 -3 61 -1 57 11 -4 10 -20 15 -44 15
-21 0 -51 5 -65 10 -22 8 -32 6 -56 -11 -16 -11 -36 -18 -44 -15 -16 6 -16 47
0 58 11 8 -43 9 -62 1z"/>
<path d="M170 1670 c-52 -9 -105 -28 -98 -35 3 -3 36 -9 74 -15 38 -5 78 -11
89 -12 11 -2 20 2 20 9 0 24 15 25 15 1 0 -14 7 -29 16 -32 22 -9 71 -7 58 2
-5 4 -16 21 -22 37 -9 22 -23 34 -52 43 -22 6 -43 11 -47 11 -5 -1 -28 -5 -53
-9z"/>
<path d="M995 1623 c30 -29 30 -29 58 -10 30 20 37 43 10 32 -23 -10 -32 -10
-68 -1 l-30 7 30 -28z"/>
<path d="M393 1624 c-18 -18 -16 -28 6 -48 12 -11 21 -14 26 -7 3 6 -1 11 -9
11 -22 0 -30 19 -15 36 15 19 8 26 -8 8z"/>
<path d="M0 1402 c0 -191 0 -193 20 -182 22 12 60 5 60 -10 0 -5 -9 -12 -21
-15 -40 -13 -55 -39 -58 -98 l-2 -57 119 0 118 0 24 58 c27 64 104 152 155
177 19 8 49 15 67 14 20 -2 64 12 113 35 44 20 98 45 120 55 l40 18 -48 22
c-29 13 -57 20 -70 16 -15 -4 -18 -3 -9 3 16 11 -99 65 -126 60 -11 -2 -25 9
-39 32 -12 19 -23 30 -23 23 0 -7 -9 -17 -19 -23 -15 -8 -24 -6 -37 7 -14 14
-41 18 -162 20 -86 2 -151 8 -159 14 -7 6 -20 8 -30 5 -9 -4 -20 -1 -25 6 -4
7 -8 -74 -8 -180z m80 128 c0 -5 -6 -10 -14 -10 -8 0 -18 5 -21 10 -3 6 3 10
14 10 12 0 21 -4 21 -10z m375 -10 c3 -5 1 -10 -4 -10 -6 0 -11 5 -11 10 0 6
2 10 4 10 3 0 8 -4 11 -10z m-5 -39 c0 -6 -4 -13 -10 -16 -5 -3 -10 1 -10 9 0
9 5 16 10 16 6 0 10 -4 10 -9z"/>
<path d="M1600 1220 c0 -19 3 -21 12 -12 9 9 9 15 0 24 -9 9 -12 7 -12 -12z"/>
<path d="M2318 1115 c-2 -19 0 -41 4 -48 4 -7 8 9 8 36 0 55 -6 62 -12 12z"/>
<path d="M118 1021 c-15 -5 -12 -9 15 -21 32 -15 31 -15 -50 -18 -82 -3 -83
-3 -81 -28 2 -22 6 -25 28 -20 77 18 119 18 141 2 42 -29 57 -21 61 32 3 26 3
49 1 51 -5 7 -97 9 -115 2z"/>
<path d="M18 1013 c12 -2 32 -2 45 0 12 2 2 4 -23 4 -25 0 -35 -2 -22 -4z"/>
<path d="M1995 919 c-9 -27 40 -78 57 -61 18 18 28 15 28 -7 0 -15 -6 -19 -27
-18 -24 2 -28 -2 -28 -23 0 -20 -6 -26 -29 -28 -18 -2 -30 -11 -33 -23 -5 -17
-15 -23 -35 -20 -5 0 -8 -4 -8 -9 0 -6 8 -10 18 -10 14 0 15 -2 2 -9 -8 -6
-17 -8 -21 -5 -4 2 -9 -3 -13 -11 -3 -9 3 -19 15 -26 14 -7 19 -17 16 -30 -4
-14 0 -19 14 -19 11 0 21 -9 25 -24 5 -23 54 -45 54 -25 0 5 -8 9 -17 9 -15 0
-15 2 -4 9 8 5 15 21 17 36 2 15 6 30 9 33 9 9 25 -20 18 -32 -4 -5 1 -7 10
-3 12 4 17 1 17 -9 0 -10 -6 -14 -15 -11 -8 4 -17 2 -20 -4 -4 -5 1 -12 9 -15
11 -4 14 -14 10 -29 -3 -13 -1 -26 5 -29 6 -4 11 -3 11 2 0 5 10 8 23 7 12 -2
21 -8 20 -14 -2 -6 -4 -16 -5 -23 -2 -7 2 -12 9 -13 7 0 26 -16 43 -35 21 -23
29 -28 25 -15 -8 23 -8 25 -6 47 1 21 31 13 31 -8 0 -7 6 -11 14 -8 8 3 11 15
9 32 l-5 27 21 -30 c14 -20 19 -39 16 -55 l-6 -25 20 25 c17 21 18 27 7 35 -8
6 -28 38 -46 70 -17 33 -40 76 -52 95 -11 19 -21 40 -22 45 -1 6 -5 15 -9 22
-4 6 -3 15 3 18 12 7 50 -31 50 -50 0 -7 9 -20 20 -30 19 -18 20 -17 20 2 0
11 -9 28 -20 38 -11 10 -20 23 -20 28 0 13 -53 62 -65 60 -5 -1 -18 15 -28 36
-20 44 -58 91 -73 91 -6 0 -20 9 -31 20 -22 20 -22 20 -28 -1z m45 -230 c0
-16 -4 -19 -20 -14 -11 3 -20 2 -20 -3 0 -6 -9 -8 -20 -5 -26 7 -25 17 3 31
36 17 57 14 57 -9z"/>
<path d="M220 800 c-13 -11 -31 -20 -40 -20 -9 0 -22 -11 -28 -25 -11 -24 -11
-25 9 -14 15 8 19 8 15 0 -11 -17 10 -13 54 9 30 15 37 24 33 40 -8 30 -18 32
-43 10z"/>
<path d="M2327 563 c6 -79 3 -75 59 -94 l49 -17 -30 -12 c-16 -7 -41 -13 -54
-14 -21 -1 -27 -10 -41 -62 -10 -33 -26 -80 -37 -105 -27 -59 -112 -147 -150
-155 -20 -4 -33 -15 -41 -32 l-11 -27 6 29 c5 26 4 27 -16 17 -11 -6 -20 -17
-18 -23 3 -16 -51 -19 -80 -5 -13 6 -23 16 -23 24 0 25 -38 14 -44 -13 -5 -20
-10 -24 -19 -15 -16 16 -24 14 -30 -9 -3 -11 -13 -20 -22 -20 -14 0 -15 -3 -5
-15 11 -13 67 -15 390 -15 293 0 379 3 383 13 4 9 6 9 6 0 1 -9 23 -13 76 -13
l75 0 0 154 c0 114 -3 155 -12 158 -7 3 -43 11 -80 18 -38 8 -68 17 -68 21 0
4 -8 7 -17 7 -10 -1 -36 7 -58 18 l-40 19 40 3 c49 5 203 -17 211 -29 16 -26
24 0 24 74 l0 83 -62 14 c-71 17 -106 15 -146 -6 -40 -20 -50 -18 -108 26 -44
33 -93 60 -108 60 -1 0 -1 -26 1 -57z m333 -33 c0 -5 -6 -10 -14 -10 -8 0 -16
-6 -18 -12 -4 -10 -9 -8 -21 3 -9 9 -13 19 -10 23 10 10 63 7 63 -4z m-277
-177 c4 -3 5 -8 2 -13 -6 -10 -45 9 -45 22 0 7 22 2 43 -9z m194 -195 c-3 -7
-5 -2 -5 12 0 14 2 19 5 13 2 -7 2 -19 0 -25z m17 -83 c3 -8 1 -15 -4 -15 -6
0 -10 7 -10 15 0 8 2 15 4 15 2 0 6 -7 10 -15z"/>
<path d="M1064 568 c-4 -13 -12 -26 -18 -30 -8 -5 -8 -12 0 -25 8 -13 5 -23
-16 -45 -15 -15 -32 -28 -37 -28 -5 0 -23 -12 -39 -26 -29 -25 -30 -25 -159
-19 -141 7 -192 18 -276 60 l-54 27 50 -49 c95 -95 218 -119 449 -88 75 10
140 21 146 25 6 4 6 18 0 40 -6 19 -10 68 -10 107 0 57 -3 73 -14 73 -8 0 -18
-10 -22 -22z"/>
<path d="M2259 303 c-13 -16 -12 -17 4 -4 16 13 21 21 13 21 -2 0 -10 -8 -17
-17z"/>
<path d="M1755 150 c3 -5 8 -10 11 -10 2 0 4 5 4 10 0 6 -5 10 -11 10 -5 0 -7
-4 -4 -10z"/>
<path d="M1731 121 c-8 -6 -9 -11 -3 -15 6 -3 14 -1 17 5 9 14 2 20 -14 10z"/>
<path d="M1780 120 c0 -3 9 -16 21 -28 l20 -23 -23 6 c-21 5 -24 3 -23 -24 0
-36 2 -37 35 -12 16 13 25 30 25 53 1 30 -1 33 -27 34 -15 1 -28 -2 -28 -6z"/>
<path d="M1650 107 c0 -8 9 -22 20 -32 18 -16 19 -20 5 -27 -8 -5 -15 -15 -15
-22 0 -27 62 -35 85 -12 12 12 12 16 0 26 -8 7 -15 20 -15 29 0 9 -14 24 -31
34 -37 20 -49 22 -49 4z"/>
</g>
</svg>
