<?xml version="1.0" standalone="no"?>
<!DOCTYPE svg PUBLIC "-//W3C//DTD SVG 20010904//EN"
 "http://www.w3.org/TR/2001/REC-SVG-20010904/DTD/svg10.dtd">
<svg version="1.0" xmlns="http://www.w3.org/2000/svg"
 width="259.000000pt" height="194.000000pt" viewBox="0 0 259.000000 194.000000"
 preserveAspectRatio="xMidYMid meet">

<g transform="translate(0.000000,194.000000) scale(0.100000,-0.100000)"
fill="#000000" stroke="none">
<path d="M812 1933 c-22 -9 -2 -23 34 -23 35 0 46 13 18 24 -18 7 -33 7 -52
-1z"/>
<path d="M118 1893 c7 -3 16 -2 19 1 4 3 -2 6 -13 5 -11 0 -14 -3 -6 -6z"/>
<path d="M8 1863 c7 -3 16 -2 19 1 4 3 -2 6 -13 5 -11 0 -14 -3 -6 -6z"/>
<path d="M867 1844 c-11 -11 3 -24 24 -24 12 0 19 5 17 13 -5 14 -31 21 -41
11z"/>
<path d="M1793 1825 c-3 -9 -3 -19 1 -22 7 -7 36 16 36 28 0 15 -30 10 -37 -6z"/>
<path d="M1146 1631 c-9 -9 -16 -27 -16 -39 0 -15 -5 -20 -15 -16 -9 4 -15 0
-15 -8 0 -8 -9 -23 -19 -32 -15 -13 -20 -14 -25 -4 -4 10 -8 10 -17 -3 -15
-19 -52 -5 -69 26 -7 14 -8 -8 -4 -80 3 -55 10 -104 15 -110 5 -5 9 -12 9 -17
0 -12 -33 3 -62 30 -30 28 -55 24 -60 -9 -4 -31 -50 -42 -110 -28 -26 6 -56 8
-67 4 -11 -3 -60 -7 -109 -9 -49 -2 -95 -7 -101 -11 -7 -4 -90 -11 -184 -17
-95 -5 -194 -11 -222 -13 -27 -2 -56 -4 -63 -4 -10 -1 -12 -37 -10 -163 l3
-163 28 -3 c23 -3 28 -7 24 -23 -7 -26 22 -38 35 -16 13 23 48 22 48 -1 0 -12
-14 -25 -35 -35 -19 -10 -51 -24 -70 -34 l-35 -16 0 -151 0 -151 50 3 c59 5
77 -7 78 -48 1 -28 -1 -29 -31 -23 -18 3 -35 10 -38 15 -3 5 -18 16 -32 23
l-27 14 0 -40 c0 -27 4 -39 14 -39 16 0 16 -21 -1 -42 -8 -9 -12 -78 -13 -206
l-1 -192 128 1 128 0 45 62 c55 76 64 95 43 93 -9 0 -18 5 -20 12 -3 8 1 10
13 5 12 -4 15 -3 10 5 -4 7 -3 12 3 12 5 0 13 -5 16 -11 12 -19 42 20 86 110
23 47 50 98 60 113 11 14 19 32 19 39 0 7 9 22 20 34 10 11 20 34 22 51 2 25
6 30 22 26 12 -3 17 -1 12 6 -7 12 20 88 55 154 18 34 19 47 10 136 -11 114
-6 147 22 167 30 21 64 19 106 -7 29 -18 32 -23 18 -26 -17 -4 -18 -12 -13
-100 7 -137 20 -223 35 -251 8 -15 12 -44 9 -79 -4 -38 0 -65 11 -86 15 -29
21 -155 10 -211 -3 -12 2 -20 11 -21 8 0 19 -2 24 -2 4 -1 -8 -22 -28 -46 -20
-24 -40 -56 -46 -71 -8 -20 -15 -25 -27 -20 -10 3 -14 3 -11 -1 4 -4 4 -14 -1
-23 -5 -9 -11 -28 -15 -43 l-6 -27 329 -1 329 -1 7 41 c4 24 12 40 21 40 8 0
11 6 8 15 -6 15 5 19 36 15 11 -1 9 3 -5 15 -19 15 -18 16 23 10 52 -8 56 8 7
26 -19 7 -34 17 -32 22 1 5 7 7 12 5 6 -2 13 15 16 37 8 47 29 105 46 123 6 6
29 16 50 20 23 6 37 14 35 22 -2 7 3 17 10 21 9 6 6 9 -9 9 -20 0 -23 5 -23
40 0 28 4 40 14 40 11 0 15 28 18 136 3 150 9 163 72 165 17 0 25 3 19 6 -10
4 -10 10 2 26 17 24 21 147 5 147 -5 0 -7 6 -4 14 3 7 -2 16 -10 19 -9 4 -16
13 -16 22 0 25 -44 12 -48 -15 -2 -14 0 -20 7 -16 6 4 11 0 11 -8 0 -8 -4 -18
-10 -21 -5 -3 -10 -1 -10 5 0 6 -4 9 -9 6 -8 -5 -9 38 -1 69 1 6 2 16 1 23 -2
20 -21 4 -21 -17 0 -10 -9 -21 -21 -24 -15 -4 -19 -2 -15 9 8 20 -3 44 -20 44
-15 0 -17 -12 -8 -47 4 -13 13 -23 20 -23 19 0 18 -36 -1 -44 -11 -4 -15 1
-15 19 0 13 -6 30 -13 37 -7 7 -14 26 -15 42 -2 31 -19 49 -39 42 -6 -3 -14 2
-17 10 -4 11 -13 13 -27 9 -18 -6 -21 -4 -16 10 4 9 7 21 7 27 0 5 12 0 26
-11 14 -11 31 -18 38 -15 8 3 16 -4 19 -15 8 -32 30 -26 24 6 l-5 27 19 -25
19 -24 0 31 c0 34 -27 55 -42 32 -6 -10 -8 -8 -8 5 0 22 -16 22 -29 0 -9 -16
-10 -16 -11 5 0 12 5 22 11 22 5 0 7 5 3 12 -5 8 -2 9 9 5 10 -4 17 -2 17 5 0
7 5 6 15 -2 12 -10 15 -10 15 2 0 20 -20 37 -36 31 -8 -3 -17 2 -20 12 -4 9
-18 21 -33 27 -20 9 -22 12 -9 15 22 6 107 -57 136 -101 21 -30 27 -34 56 -29
39 6 85 -15 114 -52 11 -14 25 -25 31 -25 26 0 70 -31 90 -63 25 -41 27 -94 6
-145 -27 -64 -76 -266 -70 -290 3 -14 1 -22 -7 -22 -7 0 -2 -7 10 -16 12 -8
22 -24 22 -36 0 -16 -4 -19 -24 -14 -14 3 -27 3 -29 -1 -16 -26 -63 -375 -64
-481 l-1 -42 414 0 414 0 0 623 c0 414 -3 626 -10 633 -9 9 -91 4 -137 -8 -11
-2 -96 13 -107 20 -11 6 -29 8 -142 16 -44 3 -91 9 -105 14 -13 5 -33 6 -44 2
-11 -4 -56 -3 -100 2 -44 6 -124 11 -177 12 -63 1 -101 5 -109 14 -9 8 -49 12
-124 12 l-111 0 4 33 c3 24 -6 52 -34 103 -21 38 -42 72 -46 75 -5 3 -6 12 -3
21 4 9 -4 21 -19 32 -24 15 -26 15 -26 0 0 -13 -3 -14 -15 -4 -11 9 -15 9 -15
1 0 -8 -9 -7 -30 4 -16 8 -37 15 -46 15 -16 0 -16 -1 -1 -18 8 -9 20 -30 26
-45 10 -25 9 -28 -6 -25 -11 2 -19 14 -21 31 -2 15 -8 27 -14 27 -6 0 -8 10
-4 24 8 32 -7 41 -28 17z m274 -387 c0 -8 -4 -12 -10 -9 -5 3 -10 13 -10 21 0
8 5 12 10 9 6 -3 10 -13 10 -21z m-432 -7 c-7 -8 -18 -14 -25 -14 -9 0 -10 4
-2 14 6 7 18 13 26 13 11 0 11 -3 1 -13z m-61 -44 c-6 -15 -20 -36 -29 -45
-10 -10 -18 -23 -18 -30 0 -6 10 -1 22 12 14 15 23 19 26 11 4 -12 -42 -54
-55 -50 -12 4 -20 -53 -12 -78 6 -17 5 -21 -6 -16 -8 3 -15 11 -15 19 0 7 -7
17 -16 22 -12 7 -13 11 -5 17 7 4 15 4 18 1 3 -3 14 16 23 43 17 50 59 121 72
121 4 0 2 -12 -5 -27z m79 -20 c-10 -10 -19 5 -10 18 6 11 8 11 12 0 2 -7 1
-15 -2 -18z m1404 7 c0 -5 -7 -7 -15 -4 -8 4 -12 10 -9 15 6 11 24 2 24 -11z
m-1079 -37 c-8 -15 -10 -15 -11 -2 0 17 10 32 18 25 2 -3 -1 -13 -7 -23z
m-827 -48 c-12 -19 -24 -25 -43 -24 -18 2 -37 -7 -61 -29 -31 -29 -83 -52
-117 -52 -7 0 -13 11 -13 24 0 23 16 36 47 36 9 0 36 19 60 41 41 37 49 41 84
36 23 -3 42 -1 46 6 5 8 8 8 10 0 3 -7 -3 -24 -13 -38z m924 10 c0 -19 -4 -32
-9 -29 -15 9 -9 64 7 64 1 0 2 -16 2 -35z m-473 15 c-3 -5 1 -10 9 -10 9 0 16
-4 16 -9 0 -5 8 -12 18 -14 9 -3 4 -4 -13 -2 -16 2 -33 4 -37 4 -12 1 -9 41 3
41 5 0 7 -4 4 -10z m-140 -40 c-3 -5 -12 -10 -18 -10 -7 0 -6 4 3 10 19 12 23
12 15 0z m705 -36 c0 -8 7 -14 15 -14 8 0 15 -4 15 -10 0 -13 -4 -13 -44 4
-38 16 -46 45 -9 38 13 -2 23 -11 23 -18z m-283 -6 c-3 -8 -6 -5 -6 6 -1 11 2
17 5 13 3 -3 4 -12 1 -19z m-327 -9 c0 -18 -2 -19 -15 -5 -8 8 -15 17 -15 20
0 3 7 6 15 6 9 0 15 -9 15 -21z m664 -81 c-7 -11 -34 3 -34 18 0 12 4 12 19 2
11 -7 18 -15 15 -20z m67 5 c-12 -20 -14 -14 -5 12 4 9 9 14 11 11 3 -2 0 -13
-6 -23z m-155 -10 c-10 -10 -19 5 -10 18 6 11 8 11 12 0 2 -7 1 -15 -2 -18z
m48 -18 c-7 -17 -34 -21 -34 -4 0 5 4 8 9 4 5 -3 12 -1 16 5 9 15 15 12 9 -5z
m-1089 -36 c-10 -15 -25 -10 -19 6 4 8 10 12 15 9 5 -3 7 -10 4 -15z m1847 -1
c48 -23 64 -51 45 -83 -7 -13 -17 -15 -43 -10 -27 5 -34 3 -34 -10 0 -8 -6
-15 -14 -15 -18 0 -29 31 -20 54 4 10 0 18 -10 22 -19 7 -21 35 -4 52 17 17
26 15 80 -10z m-904 -13 c-3 -3 -9 2 -12 12 -6 14 -5 15 5 6 7 -7 10 -15 7
-18z m212 10 c-7 -9 -15 -13 -19 -10 -3 3 1 10 9 15 21 14 24 12 10 -5z
m-1054 -39 c3 -8 2 -21 -3 -30 -7 -12 -11 -12 -27 -1 -11 8 -16 21 -13 30 8
19 36 20 43 1z m-196 -46 c0 -11 -4 -20 -9 -20 -5 0 -11 9 -14 20 -3 13 0 20
9 20 8 0 14 -9 14 -20z m1260 16 c0 -3 -4 -8 -10 -11 -5 -3 -10 -1 -10 4 0 6
5 11 10 11 6 0 10 -2 10 -4z m-180 -21 c11 -13 10 -14 -4 -9 -9 3 -16 10 -16
15 0 13 6 11 20 -6z m-866 -10 c3 -8 1 -15 -4 -15 -6 0 -10 7 -10 15 0 8 2 15
4 15 2 0 6 -7 10 -15z m1943 -16 c25 -9 26 -12 10 -20 -13 -8 -15 -14 -7 -29
14 -26 13 -40 -3 -40 -22 0 -50 37 -41 52 5 7 7 21 6 31 -4 20 -2 20 35 6z
m-100 -15 c-3 -3 -12 -4 -19 -1 -8 3 -5 6 6 6 11 1 17 -2 13 -5z m51 -79 c16
-35 15 -45 -5 -45 -35 0 -45 14 -32 43 15 34 23 34 37 2z m-2135 -42 c15 -7
27 -20 27 -28 0 -8 7 -15 15 -15 8 0 15 5 15 10 0 6 7 10 15 10 25 0 17 -15
-15 -27 -22 -8 -32 -8 -39 1 -5 6 -30 17 -55 25 -34 10 -46 18 -46 32 0 16 5
18 28 13 15 -4 39 -13 55 -21z m207 -78 c7 -9 9 -26 5 -45 -7 -30 -8 -31 -20
-13 -23 33 -30 73 -12 73 8 0 20 -7 27 -15z m439 -84 c-8 -17 -17 -31 -21 -31
-5 0 -8 -8 -8 -17 0 -10 -5 -25 -11 -33 -14 -21 -5 72 13 128 l13 42 14 -29
c12 -24 12 -34 0 -60z m-694 59 c-27 -12 -43 -12 -25 0 8 5 22 9 30 9 10 0 8
-3 -5 -9z m-40 -29 c-3 -6 10 -13 30 -17 35 -6 44 -17 25 -29 -13 -8 -100 31
-100 44 0 6 12 11 26 11 14 0 23 -4 19 -9z m35 -172 c0 -16 -4 -19 -22 -13
-13 3 -25 8 -27 10 -8 7 9 20 28 21 15 1 21 -4 21 -18z m1963 -65 c21 -8 22
-37 1 -55 -14 -11 -18 -10 -30 6 -18 24 -19 69 -1 61 6 -3 20 -9 30 -12z m84
-70 c4 -12 -45 -29 -54 -20 -3 3 -3 12 1 21 7 18 47 17 53 -1z m-2217 -14 c0
-5 -5 -10 -11 -10 -5 0 -7 5 -4 10 3 6 8 10 11 10 2 0 4 -4 4 -10z m58 -119
c11 -7 11 -9 -1 -14 -16 -6 -27 0 -27 15 0 10 11 10 28 -1z"/>
<path d="M1621 1123 c0 -10 4 -27 8 -37 7 -18 8 -18 14 -2 4 10 2 26 -3 37
-13 24 -20 24 -19 2z"/>
</g>
</svg>
