<?xml version="1.0" standalone="no"?>
<!DOCTYPE svg PUBLIC "-//W3C//DTD SVG 20010904//EN"
 "http://www.w3.org/TR/2001/REC-SVG-20010904/DTD/svg10.dtd">
<svg version="1.0" xmlns="http://www.w3.org/2000/svg"
 width="275.000000pt" height="183.000000pt" viewBox="0 0 275.000000 183.000000"
 preserveAspectRatio="xMidYMid meet">

<g transform="translate(0.000000,183.000000) scale(0.100000,-0.100000)"
fill="#000000" stroke="none">
<path d="M0 1554 l0 -277 23 21 c29 27 37 28 37 2 0 -12 -7 -20 -17 -21 -15 0
-15 -2 2 -9 17 -7 15 -9 -12 -9 -32 -1 -33 -3 -33 -41 0 -44 -5 -41 100 -44
29 -1 34 -4 32 -20 -3 -18 -3 -18 14 -2 14 14 27 16 63 11 52 -8 64 -13 56
-24 -2 -5 4 -16 15 -26 11 -10 20 -28 20 -39 0 -12 6 -31 14 -42 13 -18 12
-22 -10 -43 -28 -27 -55 -22 -74 15 -11 20 -19 24 -42 19 -23 -5 -30 -3 -36
15 -4 12 -7 35 -6 51 1 20 -3 29 -13 29 -8 0 -12 -4 -9 -9 9 -14 -53 -25 -68
-11 -8 6 -17 22 -20 35 -4 14 -13 25 -21 25 -13 0 -15 -74 -15 -580 l0 -580
1375 0 1375 0 0 359 c0 278 -3 360 -12 364 -10 4 -10 6 0 6 6 1 12 8 12 16 0
9 -6 12 -15 9 -11 -4 -15 1 -15 17 l0 24 -18 -22 c-16 -21 -19 -22 -46 -8 -15
8 -37 15 -48 15 -42 0 -98 45 -128 102 -22 41 -26 78 -9 78 7 0 9 10 7 25 -5
24 1 29 29 26 22 -3 19 14 -7 41 -19 19 -30 24 -41 17 -11 -7 -11 -9 4 -9 33
0 16 -30 -44 -74 -41 -30 -60 -34 -36 -8 10 10 14 22 10 27 -5 4 -2 4 6 0 11
-6 13 -4 8 8 -4 10 -2 16 6 14 6 -1 13 9 15 23 2 14 23 43 50 67 26 24 39 40
28 36 -16 -5 -17 -2 -11 18 4 13 13 29 21 35 8 6 14 16 14 21 0 6 11 26 24 46
20 28 22 37 10 41 -8 3 -14 12 -14 20 0 8 -6 16 -12 19 -8 2 0 16 21 36 28 26
36 29 49 19 13 -11 15 -9 9 19 -6 31 -5 32 42 42 26 5 57 7 69 4 22 -5 22 -5
22 176 l0 181 -911 0 -912 0 27 -27 c23 -23 25 -28 13 -41 -13 -12 -19 -11
-48 3 -19 10 -42 27 -51 39 -17 21 -21 21 -442 24 l-426 3 0 -277z m2080 85
c0 -5 -11 -15 -25 -21 -21 -9 -29 -9 -42 5 -17 17 -18 17 27 30 19 5 40 -2 40
-14z m-1500 -4 c0 -8 -7 -15 -15 -15 -9 0 -12 6 -9 15 4 8 10 15 15 15 5 0 9
-7 9 -15z m70 -64 c0 -11 6 -21 13 -24 9 -3 9 -7 -2 -20 -21 -26 -29 -20 -27
23 1 39 16 59 16 21z m376 -18 c-12 -49 -11 -56 4 -60 12 -4 12 -3 1 5 -9 7
-10 11 -2 17 7 4 19 1 27 -6 13 -11 11 -14 -17 -26 -42 -18 -55 -12 -63 28 -4
23 -1 37 10 51 26 28 48 23 40 -9z m1044 -3 c17 -11 13 -15 -22 -24 -21 -5
-28 -3 -28 8 0 12 13 23 30 25 3 0 12 -3 20 -9z m-1355 -57 c1 -11 13 -35 29
-53 21 -26 26 -40 22 -63 -3 -16 0 -40 9 -57 12 -24 13 -30 2 -37 -8 -4 -16
-16 -20 -25 -3 -10 -15 -18 -25 -18 -25 0 -72 44 -72 68 0 10 -6 24 -12 31
-10 11 -10 14 0 18 19 7 14 27 -13 53 -34 32 -32 50 6 50 20 0 29 4 26 13 -5
15 23 49 37 44 6 -2 11 -13 11 -24z m575 13 c0 -25 -31 -72 -68 -104 -45 -38
-159 -99 -168 -90 -2 3 12 23 31 45 19 22 32 43 29 46 -13 12 45 58 101 81 61
25 75 29 75 22z m140 -156 c0 -5 -7 -7 -15 -4 -8 4 -15 8 -15 10 0 2 7 4 15 4
8 0 15 -4 15 -10z m-46 -69 c-13 -14 -51 -18 -52 -6 -1 6 10 9 23 7 15 -2 25
2 25 9 0 7 3 9 7 6 4 -4 2 -11 -3 -16z m-1264 -13 c0 -16 -3 -19 -11 -11 -6 6
-8 16 -5 22 11 17 16 13 16 -11z m1309 3 c11 -7 9 -11 -9 -21 -25 -13 -35 -8
-27 15 7 17 16 19 36 6z m-1120 -56 c-13 -13 -15 -11 -17 17 -3 31 -2 32 15
15 15 -15 16 -19 2 -32z m1224 6 c-2 -2 4 -13 14 -23 18 -20 5 -25 -16 -5 -11
10 -13 9 -8 -5 5 -14 1 -16 -30 -11 -43 7 -40 -2 18 -54 21 -19 49 -59 63 -89
14 -30 29 -54 34 -54 6 0 12 -20 14 -45 3 -46 -15 -64 -27 -26 -6 21 -47 35
-74 26 -13 -4 -17 -13 -13 -30 5 -27 31 -40 63 -30 15 5 19 4 15 -4 -4 -6 -26
-11 -49 -11 -23 0 -48 -4 -56 -9 -10 -6 -28 -3 -53 10 -21 11 -38 15 -38 9 0
-5 -8 -10 -17 -10 -20 1 -53 23 -53 35 0 5 2 6 5 3 3 -3 21 10 41 29 30 28 35
38 29 63 -5 23 -12 30 -30 30 -25 0 -51 -33 -40 -50 3 -6 -1 -10 -10 -10 -10
0 -13 5 -9 13 4 6 -2 3 -15 -7 -12 -11 -19 -26 -17 -33 4 -10 1 -11 -13 -4
-10 6 -21 7 -25 4 -3 -3 -6 -1 -6 5 0 7 -6 12 -14 12 -11 0 -12 5 -3 24 8 16
14 21 19 13 6 -9 8 -9 8 1 0 7 -6 15 -14 18 -8 3 -12 12 -9 20 4 11 14 13 34
9 16 -4 30 -3 30 2 8 48 3 66 -18 76 -22 10 -22 11 -6 29 11 12 19 15 23 7 5
-7 9 -5 13 6 4 9 3 13 -3 10 -6 -3 -10 -1 -10 4 0 6 5 11 11 11 6 0 8 9 4 20
-4 11 -2 20 4 20 6 0 11 -4 11 -10 0 -5 5 -10 11 -10 6 0 8 9 4 21 -6 18 -5
19 14 7 17 -10 18 -14 6 -21 -21 -11 -19 -24 5 -32 11 -3 20 -11 20 -17 0 -5
-7 -8 -15 -4 -8 3 -15 1 -15 -4 0 -6 -7 -10 -15 -10 -23 0 -18 -14 13 -32 18
-12 22 -18 11 -18 -9 0 -22 -6 -28 -14 -10 -12 -7 -18 13 -31 23 -15 27 -15
48 -1 12 9 17 16 10 16 -17 0 -15 27 4 34 14 5 14 8 0 28 -18 26 -22 48 -5 31
6 -6 18 -9 25 -6 9 3 14 -2 14 -15 0 -26 20 -42 64 -49 24 -4 36 -2 36 6 0 7
-5 9 -10 6 -6 -4 -9 -1 -8 6 2 7 -12 18 -30 24 -44 15 -61 33 -43 44 11 7 9
10 -8 16 -11 3 -21 11 -21 16 0 5 -8 9 -17 9 -15 0 -14 2 2 14 13 9 26 11 36
6 21 -12 91 -8 78 5 -17 17 -9 25 9 8 10 -10 17 -20 15 -22z m59 27 c-9 -9 -8
-16 5 -30 13 -14 13 -18 2 -18 -8 0 -21 4 -29 10 -12 7 -12 12 4 29 11 12 22
21 25 21 3 0 0 -5 -7 -12z m-1321 -41 c-11 -11 -41 -3 -41 11 0 5 12 7 26 4
17 -3 22 -8 15 -15z m193 -18 c16 -5 40 -9 52 -9 25 0 32 -14 14 -25 -16 -10
-149 16 -161 31 -6 7 -16 11 -24 8 -7 -3 -16 0 -20 5 -7 13 90 6 139 -10z
m541 -18 c3 -10 14 -26 25 -36 24 -22 28 -67 5 -59 -8 4 -15 11 -15 18 0 6 -9
28 -20 49 -23 42 -24 47 -11 47 5 0 12 -8 16 -19z m670 -1 c3 -5 1 -10 -4 -10
-6 0 -11 5 -11 10 0 6 2 10 4 10 3 0 8 -4 11 -10z m-1255 -101 c39 -47 42 -53
30 -75 -14 -26 -48 -32 -68 -12 -17 17 -15 38 3 38 22 0 18 22 -10 60 -29 39
-29 40 -12 40 8 0 33 -23 57 -51z m1265 23 c-3 -3 -11 0 -18 7 -9 10 -8 11 6
5 10 -3 15 -9 12 -12z m-465 -8 c0 -2 -7 -4 -15 -4 -8 0 -15 4 -15 10 0 5 7 7
15 4 8 -4 15 -8 15 -10z m405 6 c3 -5 2 -10 -4 -10 -5 0 -13 5 -16 10 -3 6 -2
10 4 10 5 0 13 -4 16 -10z m-1025 -26 c0 -8 -4 -12 -10 -9 -5 3 -10 13 -10 21
0 8 5 12 10 9 6 -3 10 -13 10 -21z m381 9 c12 -16 12 -17 -1 -7 -8 6 -22 14
-30 17 -13 5 -12 6 1 6 9 1 23 -7 30 -16z m144 -13 c-3 -5 -11 -10 -16 -10 -6
0 -7 5 -4 10 3 6 11 10 16 10 6 0 7 -4 4 -10z m-295 -59 c0 -26 -14 -70 -21
-66 -23 15 -35 -81 -13 -106 13 -15 11 -19 -18 -37 -22 -14 -34 -17 -37 -10
-2 7 1 14 8 16 14 5 15 52 0 52 -6 0 -17 6 -24 14 -12 12 -12 16 0 26 8 7 13
16 10 20 -8 12 23 33 40 26 9 -3 15 0 15 8 0 8 -5 16 -10 18 -6 2 -2 13 10 26
21 23 40 29 40 13z m307 3 c-3 -3 -12 -4 -19 -1 -8 3 -5 6 6 6 11 1 17 -2 13
-5z m-52 -34 c3 -5 2 -10 -4 -10 -5 0 -13 5 -16 10 -3 6 -2 10 4 10 5 0 13 -4
16 -10z m615 -15 c20 -24 6 -28 -15 -5 -10 11 -13 20 -8 20 6 0 16 -7 23 -15z
m650 -10 c-7 -8 -17 -15 -22 -15 -6 0 -5 7 2 15 7 8 17 15 22 15 6 0 5 -7 -2
-15z m-575 -5 c8 -13 -5 -13 -25 0 -13 8 -13 10 2 10 9 0 20 -4 23 -10z m-915
-43 c0 -18 -6 -42 -14 -53 -14 -18 -15 -18 -21 9 -5 18 -2 35 9 52 22 33 26
32 26 -8z m1430 -2 c-13 -14 -26 -22 -29 -19 -3 3 5 14 19 24 34 27 38 25 10
-5z m-580 0 c0 -8 -10 -19 -21 -26 -17 -9 -25 -8 -37 5 -14 13 -13 14 5 10 11
-3 25 1 32 10 17 20 21 20 21 1z m120 -38 c11 3 20 0 20 -6 0 -6 -13 -11 -30
-11 -16 0 -30 4 -30 9 0 5 -3 18 -6 28 -5 14 -3 13 10 -4 10 -14 23 -19 36
-16z m-1015 -7 c3 -5 -1 -10 -9 -10 -9 0 -16 5 -16 10 0 6 4 10 9 10 6 0 13
-4 16 -10z m590 -48 c19 -6 23 -11 12 -11 -25 -1 -57 17 -57 32 0 8 3 9 8 1 4
-6 21 -16 37 -22z m765 -2 c-19 -17 -39 -30 -45 -29 -5 0 -2 6 8 12 10 7 28
20 39 30 12 9 24 17 27 17 3 -1 -10 -14 -29 -30z m344 -4 c24 -20 26 -24 10
-30 -9 -3 -17 -5 -18 -4 -1 2 -7 13 -13 25 -23 40 -17 43 21 9z m-1604 -11 c7
-9 10 -18 6 -22 -3 -3 -6 -1 -6 6 0 7 -5 9 -10 6 -6 -4 -8 -11 -4 -16 3 -5 0
-16 -6 -24 -6 -8 -9 -18 -6 -24 3 -5 0 -12 -6 -15 -7 -4 -2 -4 12 -2 24 5 24
4 6 -9 -29 -22 -39 -18 -32 13 4 15 7 44 6 65 -1 40 17 50 40 22z m717 9 c-3
-3 -12 -4 -19 -1 -8 3 -5 6 6 6 11 1 17 -2 13 -5z m-90 -10 c-3 -3 -12 -4 -19
-1 -8 3 -5 6 6 6 11 1 17 -2 13 -5z m378 -4 c3 -5 1 -10 -4 -10 -6 0 -11 5
-11 10 0 6 2 10 4 10 3 0 8 -4 11 -10z m95 -40 c0 -5 -2 -10 -4 -10 -3 0 -8 5
-11 10 -3 6 -1 10 4 10 6 0 11 -4 11 -10z m415 0 c3 -6 -1 -7 -9 -4 -18 7 -21
14 -7 14 6 0 13 -4 16 -10z m-785 -30 c0 -5 -2 -10 -4 -10 -3 0 -8 5 -11 10
-3 6 -1 10 4 10 6 0 11 -4 11 -10z m340 -30 c0 -5 -2 -10 -4 -10 -3 0 -8 5
-11 10 -3 6 -1 10 4 10 6 0 11 -4 11 -10z m-1120 -29 c20 -38 8 -102 -22 -114
-10 -3 -12 12 -10 64 4 70 13 85 32 50z m1055 -11 c3 -5 1 -10 -4 -10 -6 0
-11 5 -11 10 0 6 2 10 4 10 3 0 8 -4 11 -10z m490 -100 c3 -5 1 -10 -4 -10 -6
0 -11 5 -11 10 0 6 2 10 4 10 3 0 8 -4 11 -10z m-385 -10 c0 -5 -2 -10 -4 -10
-3 0 -8 5 -11 10 -3 6 -1 10 4 10 6 0 11 -4 11 -10z m-375 -100 c3 -5 1 -10
-4 -10 -6 0 -11 5 -11 10 0 6 2 10 4 10 3 0 8 -4 11 -10z m-898 -16 c-3 -3
-12 -4 -19 -1 -8 3 -5 6 6 6 11 1 17 -2 13 -5z m133 -8 c0 -3 -4 -8 -10 -11
-5 -3 -10 -1 -10 4 0 6 5 11 10 11 6 0 10 -2 10 -4z m325 -22 c24 -16 33 -34
17 -34 -4 0 -23 11 -42 25 -39 28 -16 36 25 9z m60 -22 c-3 -3 -11 0 -18 7 -9
10 -8 11 6 5 10 -3 15 -9 12 -12z m235 -4 c0 -6 10 -20 23 -31 12 -11 15 -17
7 -13 -8 3 -23 9 -32 12 -10 4 -18 10 -18 14 0 5 -3 16 -6 24 -5 12 -2 15 10
10 9 -3 16 -11 16 -16z m305 2 c14 -15 15 -20 4 -20 -8 0 -20 9 -27 20 -7 11
-8 20 -4 20 5 0 17 -9 27 -20z m-470 -35 c14 -14 25 -31 25 -37 0 -5 -13 4
-30 22 -16 18 -30 34 -30 36 0 9 11 3 35 -21z"/>
<path d="M1459 1054 c-11 -14 -10 -18 6 -30 21 -15 31 -16 58 -5 17 6 16 8 -7
21 -14 7 -26 17 -26 22 0 13 -17 9 -31 -8z"/>
<path d="M1423 1009 c-8 -8 -8 -18 -1 -35 9 -18 19 -24 44 -24 42 0 51 23 17
50 -29 23 -44 25 -60 9z"/>
<path d="M1553 989 c-27 -10 -21 -34 10 -43 33 -9 37 -8 37 13 0 27 -21 40
-47 30z"/>
<path d="M1419 928 c-9 -31 -4 -41 26 -54 19 -8 37 -14 40 -14 10 0 5 46 -7
58 -10 10 -56 18 -59 10z"/>
<path d="M2648 1401 c-12 -14 -15 -28 -9 -48 4 -15 10 -27 14 -25 4 1 14 2 24
2 14 0 14 2 -3 21 -15 16 -16 24 -6 39 22 35 7 43 -20 11z"/>
<path d="M212 1134 c-9 -16 9 -67 28 -79 14 -8 18 69 4 82 -16 17 -21 16 -32
-3z"/>
<path d="M2555 1140 c3 -5 8 -10 11 -10 2 0 4 5 4 10 0 6 -5 10 -11 10 -5 0
-7 -4 -4 -10z"/>
<path d="M2520 1111 c0 -12 71 -51 94 -51 7 0 17 -7 20 -16 4 -10 13 -13 25
-9 24 7 31 -13 27 -79 -1 -28 3 -60 9 -73 11 -20 14 -21 25 -8 7 8 10 29 8 47
-3 17 -2 46 2 64 6 26 4 37 -10 49 -10 9 -16 22 -14 29 3 7 -2 19 -11 26 -12
10 -15 10 -15 -3 0 -13 -8 -12 -62 3 -35 10 -71 21 -80 25 -11 4 -18 3 -18 -4z"/>
<path d="M2580 1026 c0 -9 5 -16 10 -16 6 0 10 4 10 9 0 6 -4 13 -10 16 -5 3
-10 -1 -10 -9z"/>
<path d="M2510 966 c0 -9 5 -16 10 -16 6 0 10 4 10 9 0 6 -4 13 -10 16 -5 3
-10 -1 -10 -9z"/>
</g>
</svg>
