<?xml version="1.0" standalone="no"?>
<!DOCTYPE svg PUBLIC "-//W3C//DTD SVG 20010904//EN"
 "http://www.w3.org/TR/2001/REC-SVG-20010904/DTD/svg10.dtd">
<svg version="1.0" xmlns="http://www.w3.org/2000/svg"
 width="290.000000pt" height="174.000000pt" viewBox="0 0 290.000000 174.000000"
 preserveAspectRatio="xMidYMid meet">

<g transform="translate(0.000000,174.000000) scale(0.100000,-0.100000)"
fill="#000000" stroke="none">
<path d="M0 1710 c0 -18 4 -29 10 -25 6 3 10 15 10 25 0 10 -4 22 -10 25 -6 4
-10 -7 -10 -25z"/>
<path d="M55 1730 c-3 -5 0 -18 7 -29 11 -18 10 -23 -7 -35 -11 -9 -28 -13
-37 -10 -13 4 -18 0 -18 -15 0 -14 6 -21 19 -21 11 0 22 -4 26 -9 6 -10 -21
-41 -36 -41 -5 0 -9 -318 -9 -785 l0 -785 115 0 c63 0 115 3 116 8 1 4 2 24 3
45 3 45 14 58 27 34 6 -9 15 -15 21 -11 12 8 1 -35 -13 -50 -21 -22 -3 -27
101 -25 l110 1 0 28 c0 16 5 32 10 35 6 4 9 24 7 46 -2 22 0 42 4 45 29 18
-15 75 -48 63 -22 -8 -37 -7 -65 5 -9 4 -22 5 -28 1 -15 -10 -12 21 4 34 8 7
21 11 28 9 7 -2 16 1 18 6 5 9 -9 13 -57 18 -12 1 -20 5 -17 9 7 12 -52 49
-78 49 -16 0 -25 6 -25 15 0 23 53 9 86 -22 17 -15 33 -22 46 -18 11 2 30 5
42 5 16 0 20 5 16 20 -3 11 0 20 6 20 6 0 12 -4 12 -10 1 -5 2 -15 3 -22 1
-12 51 -30 60 -21 7 8 46 -7 46 -18 0 -5 -10 -9 -21 -9 -18 0 -19 -2 -9 -15 7
-9 21 -13 31 -10 22 7 23 2 9 -26 -6 -10 -18 -19 -28 -20 -10 0 -12 -3 -4 -6
6 -2 12 -15 12 -28 0 -13 5 -27 10 -30 6 -3 10 -1 10 4 0 6 5 11 11 11 13 0 3
-129 -12 -144 -20 -22 -5 -26 90 -26 75 0 101 4 111 15 7 8 24 15 37 15 22 0
24 -2 13 -15 -11 -13 -7 -15 24 -15 35 0 41 6 37 38 -1 7 12 18 29 23 28 10
30 14 24 48 -9 48 -13 54 -29 41 -25 -21 -28 10 -3 31 12 12 21 28 20 37 -2 9
4 22 14 29 13 10 14 13 3 13 -20 1 42 50 64 50 24 0 22 -21 -3 -27 -11 -3 -20
-9 -20 -14 0 -17 25 -9 51 15 14 13 41 27 60 31 19 4 43 12 54 19 11 7 29 16
39 20 19 6 19 6 3 -12 -9 -10 -17 -24 -17 -30 0 -7 -9 -12 -21 -12 -11 0 -17
-4 -14 -10 3 -5 1 -10 -4 -10 -6 0 -11 -6 -11 -14 0 -9 -7 -12 -20 -9 -14 4
-21 -1 -26 -21 -4 -17 -13 -26 -25 -26 -10 0 -19 -4 -19 -10 0 -5 -9 -19 -21
-31 -12 -12 -23 -38 -26 -59 -4 -25 -10 -37 -20 -36 -9 0 -17 -9 -19 -21 -5
-27 11 -30 25 -6 9 16 11 14 21 -14 l12 -33 154 0 c148 0 154 1 154 20 0 11 7
23 16 27 13 5 13 8 -4 27 -30 34 -36 47 -16 39 15 -6 14 -1 -5 25 -27 38 -26
89 1 84 15 -2 17 3 12 30 -4 18 -13 43 -20 55 -8 12 -11 29 -7 38 3 10 0 21
-8 26 -8 4 -14 18 -14 30 0 12 -10 28 -22 36 -21 14 -23 14 -23 -1 0 -19 -16
-21 -23 -3 -3 7 -6 5 -6 -5 -1 -22 -31 -24 -31 -3 0 9 -7 18 -15 21 -8 4 -15
10 -15 16 0 5 5 6 10 3 5 -3 10 -1 10 4 0 18 -5 26 -12 24 -4 -2 -5 3 -2 10 5
15 -41 79 -84 115 l-27 24 25 -9 c14 -4 50 -7 80 -6 31 1 58 -3 62 -10 4 -7
11 0 19 16 10 21 10 30 1 39 -18 18 -15 28 9 28 11 0 17 5 14 10 -3 6 0 10 9
10 8 0 16 6 19 13 3 9 9 9 23 1 14 -8 24 -8 37 0 12 8 22 8 37 -2 11 -6 24
-12 30 -12 14 0 50 -37 43 -44 -4 -3 -1 -6 6 -6 8 0 10 7 6 19 -5 16 -1 18 37
14 57 -6 68 -10 68 -25 0 -11 -2 -11 -8 0 -7 9 -13 7 -28 -9 l-19 -22 34 5
c33 5 33 4 12 -11 l-21 -16 22 -19 22 -19 -25 -20 c-13 -11 -23 -23 -22 -28 2
-5 -4 -6 -12 -3 -8 4 -15 1 -15 -5 0 -6 -11 -11 -24 -11 -14 0 -26 -6 -29 -12
-2 -7 -3 -5 -2 4 5 27 -10 30 -39 7 -30 -23 -47 -18 -39 12 5 17 2 20 -13 17
-35 -6 -28 -38 20 -84 25 -24 46 -48 46 -54 0 -7 6 -8 19 -1 10 6 34 11 52 12
44 3 94 40 118 87 41 79 106 113 256 131 140 18 140 18 153 46 22 48 71 26
187 -84 85 -79 122 -111 130 -111 3 0 3 11 -1 25 -3 14 -2 25 4 25 5 0 12 9
15 20 8 31 27 24 27 -10 0 -31 2 -32 60 -32 43 1 80 -16 80 -36 0 -9 14 -27
31 -42 l31 -26 -51 1 c-44 0 -61 -8 -61 -28 0 -2 26 -3 58 -3 47 -1 72 -8 145
-46 49 -25 82 -48 75 -51 -7 -3 0 -6 15 -6 31 -1 28 -21 -4 -21 -23 0 -25 -13
-4 -30 18 -15 20 -37 3 -43 -10 -4 -10 -7 -1 -16 7 -6 11 -8 8 -4 -9 12 75 81
106 87 17 3 29 12 29 21 0 8 5 15 10 15 13 0 14 257 1 264 -5 4 -12 0 -15 -6
-3 -7 -3 -2 0 11 5 17 3 21 -6 16 -9 -5 -11 -4 -6 4 6 9 11 9 22 0 12 -10 14
-4 14 35 0 39 -4 48 -22 55 -32 12 -100 2 -114 -16 -10 -15 -12 -15 -22 4 -10
18 -8 21 21 28 18 4 42 7 55 6 26 -3 29 5 4 18 -10 5 -36 6 -60 1 -40 -7 -42
-6 -43 19 -1 14 -1 29 -1 32 1 4 3 23 5 43 3 20 7 39 10 42 11 12 28 -8 22
-27 -4 -10 -3 -24 2 -31 5 -9 10 -1 13 22 4 28 10 35 28 36 20 1 22 -4 23 -50
1 -28 4 -41 6 -28 2 12 8 22 13 22 16 0 41 -46 35 -62 -4 -9 1 -18 9 -21 14
-6 16 8 16 98 0 58 -4 105 -9 105 -5 0 -11 -4 -13 -9 -1 -5 -44 -14 -95 -20
-51 -5 -100 -14 -110 -18 -10 -5 -39 -9 -65 -8 -27 0 -48 -3 -48 -6 0 -3 -71
-9 -157 -13 -195 -10 -208 -11 -258 -25 -22 -6 -59 -11 -83 -11 -40 0 -43 2
-37 21 6 19 4 21 -19 17 -14 -3 -24 -2 -21 1 2 4 0 13 -4 20 -5 8 1 23 16 39
22 24 25 33 20 89 -4 60 -18 93 -39 93 -5 0 -6 -10 -3 -21 6 -19 4 -21 -15
-16 -27 7 -50 -1 -46 -16 1 -7 1 -9 -1 -4 -7 12 -30 8 -43 -8 -7 -8 -21 -15
-31 -15 -15 0 -18 6 -15 30 3 26 1 28 -15 19 -12 -6 -19 -6 -19 0 0 5 9 13 20
16 11 3 20 11 20 16 0 5 15 9 33 9 58 0 61 9 41 110 -2 14 -5 31 -6 38 -3 28
-56 71 -101 83 -26 6 -44 15 -41 20 3 5 -1 9 -8 9 -7 0 -19 -9 -26 -20 -10
-17 -10 -20 4 -20 8 0 13 -3 10 -8 -2 -4 1 -18 8 -31 10 -17 15 -20 21 -11 5
8 1 18 -10 27 -11 7 -13 13 -6 13 7 0 9 5 6 10 -3 6 -1 10 5 10 7 0 9 -7 6
-15 -3 -10 1 -18 11 -22 9 -4 19 -1 21 5 6 19 30 14 42 -9 11 -19 10 -20 -10
-9 -13 7 -20 8 -16 2 3 -6 1 -14 -5 -18 -8 -4 -9 -3 -5 4 4 7 1 12 -8 12 -19
0 -30 -17 -16 -25 5 -3 7 -18 4 -33 -6 -26 -6 -27 10 -7 17 20 17 20 6 -2 -6
-13 -15 -23 -20 -23 -15 0 -12 -17 6 -35 9 -9 13 -19 10 -22 -4 -4 -13 3 -22
15 -9 13 -26 22 -41 22 -21 0 -24 2 -13 15 10 13 9 15 -9 15 -11 0 -21 5 -21
11 0 5 4 8 9 4 5 -3 12 -1 16 5 6 9 -8 15 -29 11 -5 -1 -3 6 5 15 8 10 9 15 3
11 -7 -4 -15 0 -18 9 -3 8 -2 12 4 9 6 -3 10 -2 10 4 0 5 -4 12 -9 15 -11 7
-25 -22 -22 -46 1 -9 -3 -19 -9 -23 -18 -11 -11 -23 20 -30 17 -4 30 -11 30
-17 0 -6 -9 -8 -20 -5 -13 3 -29 -3 -44 -16 -161 -152 -156 -145 -117 -189 36
-42 73 -110 48 -89 -14 11 -21 10 -46 -12 -30 -25 -81 -27 -81 -3 0 6 -4 6 -9
-3 -11 -17 -70 -6 -78 15 -3 8 -11 14 -18 14 -11 0 -11 8 -4 32 5 18 9 34 9
35 0 2 -9 3 -20 3 -11 0 -20 5 -20 10 0 6 10 10 23 10 18 0 19 2 7 10 -13 8
-13 10 2 10 9 0 22 8 27 18 6 9 11 12 11 5 0 -6 8 -11 18 -11 9 1 29 -1 44 -5
22 -6 31 -2 48 20 12 16 48 56 81 89 51 54 56 62 39 67 -13 3 -18 1 -13 -6 4
-7 -1 -6 -10 2 -10 8 -15 21 -13 30 3 9 -1 30 -9 46 -12 27 -13 28 -14 8 -1
-13 -5 -23 -9 -23 -15 0 -52 46 -45 54 5 4 1 7 -7 6 -36 -5 -46 0 -26 15 20
15 11 21 -11 7 -17 -11 -35 -62 -22 -62 6 0 7 -5 3 -11 -11 -18 -13 -104 -2
-88 8 12 9 11 5 -1 -2 -8 -11 -14 -20 -14 -9 1 -13 -4 -10 -12 3 -9 -2 -14
-16 -14 -22 0 -29 16 -10 22 14 5 0 38 -17 38 -8 0 -14 -4 -14 -10 0 -5 -4
-10 -10 -10 -5 0 -7 7 -4 15 4 8 1 15 -5 15 -6 0 -11 -7 -11 -15 0 -11 -8 -14
-30 -10 -28 5 -43 -9 -19 -17 9 -3 8 -10 -1 -24 -10 -16 -10 -29 -2 -51 8 -26
9 -67 1 -120 -1 -7 -7 -13 -12 -13 -5 0 -3 -8 4 -17 10 -11 10 -14 2 -9 -7 4
-13 2 -13 -3 0 -6 6 -11 13 -11 6 -1 1 -8 -13 -16 l-25 -15 30 6 c29 6 29 6
10 -10 -11 -9 -15 -14 -8 -11 19 10 24 -11 6 -25 -14 -12 -16 -12 -8 0 6 11 4
13 -9 8 -14 -6 -17 -3 -12 9 5 12 2 15 -10 10 -13 -5 -15 -1 -11 20 4 21 1 25
-14 21 -12 -3 -19 0 -19 9 0 8 6 13 13 11 6 -1 12 5 12 13 0 8 5 19 10 23 6 5
3 7 -7 4 -9 -3 -22 0 -28 8 -10 12 -15 11 -32 -5 -11 -10 -18 -23 -15 -28 4
-5 -4 -8 -16 -7 -12 1 -27 11 -33 23 -6 12 -23 31 -37 42 -15 12 -27 29 -27
37 0 9 -7 21 -15 27 -16 12 -29 81 -19 97 3 6 11 3 18 -7 11 -14 15 -15 34 -3
13 8 20 20 17 30 -7 21 22 88 40 95 8 3 17 21 21 40 5 27 9 32 19 24 10 -8 16
-3 25 25 6 19 18 35 26 35 12 0 14 -9 8 -45 -5 -35 -3 -45 7 -45 8 0 1 -7 -15
-15 -24 -13 -31 -13 -38 -3 -5 8 -8 9 -8 2 0 -18 24 -34 38 -25 19 11 61 1 56
-13 -3 -7 7 -18 21 -24 14 -6 25 -18 25 -27 0 -20 26 -19 34 1 4 10 2 13 -6 8
-8 -5 -9 -2 -5 10 4 9 0 27 -8 40 -13 20 -13 25 -1 35 8 6 18 11 22 10 12 -2
74 12 74 18 0 10 -65 73 -81 78 -11 4 -19 11 -19 16 0 12 -37 49 -50 49 -5 0
-10 7 -10 15 0 9 6 12 15 9 8 -4 22 -1 29 5 11 9 16 9 21 1 4 -7 18 -9 30 -6
14 4 29 0 39 -9 32 -32 52 -12 30 30 -17 32 -16 105 2 112 11 4 84 -34 84 -44
0 -3 -14 -28 -30 -55 -29 -46 -30 -50 -15 -78 9 -17 20 -30 25 -30 5 0 10 -9
12 -20 3 -21 4 -21 53 4 28 14 58 26 68 26 10 0 17 8 17 19 0 11 9 23 20 26
11 3 20 10 20 14 0 13 69 33 91 26 16 -5 19 -12 15 -31 -6 -21 -4 -23 22 -18
31 6 182 -40 264 -81 26 -13 48 -20 48 -15 0 8 -52 35 -118 60 -52 20 -68 70
-23 70 10 0 21 -9 24 -20 3 -11 13 -20 22 -20 11 0 15 -5 11 -16 -3 -8 -2 -13
3 -10 4 3 25 1 46 -5 26 -8 41 -7 48 0 13 13 57 15 57 2 0 -6 -5 -13 -11 -16
-7 -5 -3 -15 11 -30 19 -20 20 -24 5 -38 -9 -10 -11 -18 -5 -22 16 -10 12 -28
-4 -22 -10 4 -13 1 -9 -9 3 -8 15 -17 28 -20 29 -7 418 26 476 41 24 6 25 9
21 60 -3 37 1 63 12 86 19 38 20 42 6 34 -6 -4 -23 -8 -38 -11 -67 -11 -82
-16 -82 -30 0 -8 -7 -14 -15 -14 -24 0 -65 -23 -65 -37 0 -9 -15 -13 -47 -13
-74 1 -113 -4 -113 -14 0 -17 -89 -94 -94 -81 -7 20 30 72 108 150 l73 73 -42
43 c-66 70 -146 179 -140 189 4 7 -125 10 -359 10 -365 0 -402 -3 -361 -34 10
-7 18 -25 18 -40 0 -29 -30 -69 -45 -60 -6 4 -6 10 1 17 16 16 13 24 -11 32
l-23 7 23 6 24 7 -27 29 c-22 24 -31 27 -58 22 -18 -4 -41 -16 -52 -28 -17
-18 -17 -20 -3 -15 14 5 17 1 16 -19 -2 -21 -4 -23 -14 -10 -6 9 -16 16 -22
16 -6 0 -24 16 -39 35 -23 29 -35 35 -66 35 -29 0 -43 -7 -66 -32 -25 -29 -31
-31 -60 -22 l-32 9 21 23 21 22 -30 0 c-25 0 -32 -5 -37 -26 -5 -21 1 -33 32
-65 32 -32 43 -39 65 -34 30 7 42 -4 29 -25 -7 -12 -14 -12 -27 -4 -29 18 -42
7 -33 -26 5 -16 6 -38 3 -48 -3 -13 4 -24 21 -36 l26 -17 -19 -37 c-22 -43
-47 -72 -79 -89 -12 -7 -32 -19 -44 -25 -13 -7 -27 -19 -31 -26 -11 -17 -27
-5 -21 16 4 13 3 14 -4 4 -6 -9 -20 -11 -44 -7 -43 8 -57 -7 -28 -32 11 -10
20 -30 20 -45 0 -18 8 -33 24 -43 20 -14 23 -21 16 -50 -5 -21 -3 -38 4 -46 6
-8 1 -5 -11 4 -21 18 -21 18 -28 -2 -8 -25 -21 -27 -32 -6 -6 10 -30 16 -76
19 -37 2 -73 8 -80 14 -18 14 -67 12 -67 -4 0 -7 5 -16 10 -19 15 -9 12 -25
-5 -25 -8 0 -15 7 -15 15 0 8 -4 15 -8 15 -4 0 -14 20 -21 45 -10 35 -16 43
-26 35 -10 -8 -18 -4 -34 16 -12 15 -21 31 -21 35 0 11 -79 9 -86 -2 -17 -28
41 -139 73 -139 6 0 23 -20 38 -44 17 -27 33 -42 41 -39 27 10 14 -12 -17 -30
-17 -9 -33 -26 -36 -37 -3 -11 -9 -20 -14 -20 -13 0 -11 -57 4 -80 8 -14 9
-23 2 -28 -12 -8 -16 -72 -4 -72 4 0 9 15 11 33 4 43 38 49 72 12 23 -25 25
-25 23 -6 -1 12 -5 21 -9 21 -4 0 -8 3 -8 8 0 4 14 7 30 7 35 0 36 -3 13 -22
-17 -14 -17 -14 1 -9 10 4 24 2 31 -4 9 -8 15 -8 20 0 3 5 2 10 -3 10 -5 0
-12 9 -15 20 -3 13 0 20 9 20 8 0 14 -5 14 -11 0 -6 8 -8 19 -4 32 10 53 -5
46 -32 -4 -19 -2 -23 12 -21 20 3 30 -29 14 -45 -7 -7 -14 -7 -24 2 -12 9 -18
6 -32 -15 -15 -24 -16 -29 -3 -38 42 -32 18 -67 -40 -58 -25 3 -34 10 -38 31
-15 65 -14 64 -35 45 -17 -15 -19 -15 -25 -1 -5 13 -10 14 -26 6 -11 -6 -27
-7 -36 -3 -9 4 -26 7 -37 8 -17 1 -19 7 -16 53 2 45 0 52 -13 47 -9 -3 -16 -1
-16 5 0 6 7 11 15 11 11 0 15 12 15 45 0 25 -3 45 -6 45 -3 0 -35 -30 -71 -67
-62 -64 -65 -69 -60 -106 3 -22 15 -50 28 -63 12 -13 19 -27 16 -31 -10 -10
-46 32 -63 73 -16 39 -10 96 12 115 23 19 16 29 -18 30 l-33 1 30 9 c17 6 44
10 62 10 34 1 85 46 61 53 -26 8 -53 3 -72 -13 -17 -15 -18 -15 -14 4 2 11 10
19 16 18 7 -2 12 6 12 17 0 12 12 26 30 35 25 13 29 20 24 40 -4 15 -2 25 5
25 6 0 11 -6 11 -13 0 -7 8 -13 19 -13 16 0 17 5 10 29 -4 16 -13 35 -20 43
-13 16 -39 19 -39 5 0 -5 -8 -12 -18 -16 -21 -6 -64 -87 -81 -152 -15 -56 -22
-55 -15 1 4 24 2 51 -3 61 -9 15 -15 12 -51 -23 -22 -21 -54 -45 -71 -52 -17
-7 -31 -16 -31 -20 0 -4 -7 -10 -15 -14 -20 -7 -19 9 2 30 15 14 15 18 2 28
-8 6 -15 25 -16 41 -1 17 -2 44 -3 60 -3 43 -1 52 9 36 7 -11 11 -9 20 8 16
30 6 41 -31 34 -30 -6 -31 -5 -24 23 11 46 86 101 86 63 0 -6 7 -9 15 -5 9 3
15 0 15 -9 0 -9 4 -23 9 -33 5 -9 12 -25 15 -36 4 -12 13 -17 26 -13 11 3 17
1 14 -4 -3 -5 2 -12 11 -16 10 -3 21 0 25 7 10 17 30 4 30 -20 0 -13 5 -17 15
-14 8 4 15 14 15 24 0 10 7 23 15 30 16 14 21 60 6 60 -23 0 -43 -15 -52 -38
-7 -18 -13 -22 -20 -15 -16 16 -1 50 24 57 12 3 31 19 42 36 11 16 25 30 31
30 7 0 26 16 43 36 26 28 30 39 20 50 -9 11 -8 14 4 14 8 0 19 13 25 28 6 17
22 34 40 41 16 7 34 23 40 36 6 13 23 29 38 37 17 8 28 22 29 35 1 13 10 32
20 43 11 12 13 20 6 20 -21 0 -1 20 35 35 19 8 34 20 34 28 0 18 27 30 35 17
14 -22 26 -8 23 27 -3 36 -1 38 32 44 19 4 -77 7 -215 7 -176 0 -252 -4 -258
-12 -6 -8 -10 -7 -14 2 -4 10 -11 8 -28 -8 l-24 -22 -13 21 c-12 19 -22 21
-135 21 -67 0 -124 -4 -128 -10z m1675 -17 c0 -18 -48 -66 -58 -59 -20 12 17
65 46 66 6 0 12 -3 12 -7z m-514 -42 c-22 -21 -46 0 -26 24 10 12 16 13 27 3
12 -10 12 -13 -1 -27z m-642 20 c4 -5 3 -16 0 -25 -5 -13 -9 -14 -20 -5 -8 6
-14 18 -14 25 0 16 26 19 34 5z m1636 -7 c0 -8 -5 -12 -10 -9 -6 4 -8 11 -5
16 9 14 15 11 15 -7z m-2061 -38 c-7 -15 -20 -26 -32 -26 -17 0 -18 2 -6 18
17 22 42 43 46 38 2 -2 -2 -15 -8 -30z m2064 -15 c8 -31 -7 -86 -23 -87 -28
-1 -48 -16 -54 -40 -4 -15 -14 -24 -26 -24 -10 0 -23 -7 -28 -16 -11 -19 -27
-12 -43 18 -10 18 -9 20 5 15 10 -4 15 -3 12 1 -3 5 4 16 15 25 10 9 19 26 19
37 0 15 7 20 25 20 20 0 25 5 25 25 0 14 5 26 10 26 6 1 14 2 19 3 5 0 13 4
17 9 12 12 21 8 27 -12z m-870 -13 c22 -11 22 -28 1 -28 -25 0 -94 22 -94 30
0 21 51 20 93 -2z m-1009 -54 c9 -3 16 -12 16 -19 0 -15 -43 -45 -64 -45 -9 0
-42 -13 -74 -30 -63 -32 -102 -41 -65 -15 13 9 30 31 38 49 16 33 44 51 95 59
14 2 28 5 32 6 3 0 13 -2 22 -5z m1671 -83 c7 -12 -12 -24 -25 -16 -11 7 -4
25 10 25 5 0 11 -4 15 -9z m-1837 -222 c-27 -15 -148 -59 -148 -53 0 9 124 64
145 64 18 -1 18 -2 3 -11z m777 -39 c3 -5 1 -10 -4 -10 -6 0 -11 5 -11 10 0 6
2 10 4 10 3 0 8 -4 11 -10z m345 0 c0 -5 -4 -10 -10 -10 -5 0 -10 5 -10 10 0
6 5 10 10 10 6 0 10 -4 10 -10z m10 -106 c0 -8 -4 -14 -8 -14 -4 0 -8 9 -8 19
0 11 4 17 8 15 4 -3 8 -12 8 -20z m47 10 c-3 -3 -12 -4 -19 -1 -8 3 -5 6 6 6
11 1 17 -2 13 -5z m398 -14 c3 -6 -1 -7 -9 -4 -18 7 -21 14 -7 14 6 0 13 -4
16 -10z m-415 -14 c0 -3 -4 -8 -10 -11 -5 -3 -10 -1 -10 4 0 6 5 11 10 11 6 0
10 -2 10 -4z m410 -15 c0 -16 -14 -20 -27 -10 -19 17 -16 28 7 22 11 -3 20 -9
20 -12z m-416 -22 c-2 -4 4 -12 13 -18 10 -6 14 -10 8 -10 -11 0 -45 23 -45
31 0 3 7 5 15 5 8 0 12 -4 9 -8z m-604 -9 c0 -5 -7 -10 -15 -10 -8 0 -15 5
-15 10 0 6 7 10 15 10 8 0 15 -4 15 -10z m1000 -2 c0 -5 4 -7 10 -3 24 15 98
-52 106 -96 5 -32 5 -33 -11 -14 -8 11 -13 25 -11 31 3 7 -2 10 -12 7 -10 -2
-38 5 -62 17 -32 14 -37 19 -17 15 19 -4 26 -2 22 5 -18 29 -105 -24 -105 -64
0 -9 -4 -16 -9 -16 -5 0 -7 -9 -4 -20 8 -30 -6 -24 -19 8 -13 31 -18 87 -9 99
24 33 121 57 121 31z m-960 -29 c0 -5 -10 -9 -21 -9 -18 0 -19 2 -9 15 12 15
30 12 30 -6z m40 -13 c0 -2 3 -12 6 -21 6 -14 3 -14 -19 -4 -27 12 -27 29 -1
29 8 0 14 -2 14 -4z m-120 -16 c0 -5 -4 -10 -10 -10 -5 0 -10 5 -10 10 0 6 5
10 10 10 6 0 10 -4 10 -10z m182 -50 c-2 -14 -8 -32 -13 -40 -6 -11 -8 -8 -9
12 0 14 -3 34 -6 43 -5 13 -2 16 12 13 14 -2 18 -10 16 -28z m-232 10 c0 -5
-5 -10 -11 -10 -5 0 -7 5 -4 10 3 6 8 10 11 10 2 0 4 -4 4 -10z m180 0 c0 -5
-5 -10 -11 -10 -5 0 -7 5 -4 10 3 6 8 10 11 10 2 0 4 -4 4 -10z m122 -3 c15
-14 30 -15 70 -3 30 9 43 4 91 -41 19 -17 37 -29 40 -26 3 3 3 -4 0 -16 -3
-12 -13 -21 -22 -22 -40 -2 -67 -11 -98 -35 -28 -21 -33 -31 -33 -67 l-1 -42
-19 24 c-29 34 -25 101 6 101 17 0 17 1 -1 36 -8 16 -12 37 -9 47 3 9 0 17 -6
17 -7 0 -23 9 -37 20 -18 14 -21 20 -10 20 9 0 22 -6 29 -13z m235 -12 c0 -18
-23 -20 -33 -3 -4 6 -3 8 4 4 6 -3 13 -2 17 4 9 14 12 13 12 -5z m723 -15 c0
-21 -18 -17 -28 6 -11 23 -10 24 8 14 11 -6 20 -15 20 -20z m-1757 -71 c7 0
31 0 55 1 64 2 51 -14 -23 -28 -80 -15 -118 -16 -110 -1 4 6 9 8 12 5 8 -7 43
13 43 24 0 6 -8 11 -17 11 -17 1 -17 2 0 6 12 3 18 16 19 41 1 31 2 30 5 -10
3 -28 9 -48 16 -49z m1609 77 c4 -6 2 -18 -3 -28 -6 -10 -7 -23 -4 -28 3 -6 1
-10 -4 -10 -25 0 -27 3 -30 38 0 7 -5 10 -11 7 -13 -8 -13 8 1 22 13 13 41 12
51 -1z m-1152 -26 c0 -19 -18 -19 -23 -1 -3 14 -1 18 9 14 8 -3 14 -9 14 -13z
m570 0 c0 -5 -4 -10 -10 -10 -5 0 -10 5 -10 10 0 6 5 10 10 10 6 0 10 -4 10
-10z m-584 -46 c-3 -9 -6 -20 -6 -25 0 -6 -4 -8 -9 -5 -12 8 -2 46 11 46 6 0
7 -7 4 -16z m169 5 c11 -17 0 -20 -21 -4 -17 13 -17 14 -2 15 9 0 20 -5 23
-11z m45 -3 c0 -3 -4 -8 -10 -11 -5 -3 -10 -1 -10 4 0 6 5 11 10 11 6 0 10 -2
10 -4z m55 -6 c3 -5 1 -10 -4 -10 -6 0 -11 5 -11 10 0 6 2 10 4 10 3 0 8 -4
11 -10z m1120 0 c-3 -5 -12 -10 -18 -10 -7 0 -6 4 3 10 19 12 23 12 15 0z
m-1300 -10 c4 -6 -10 -10 -35 -10 -25 0 -39 4 -35 10 3 6 19 10 35 10 16 0 32
-4 35 -10z m195 -36 c0 -8 -4 -12 -10 -9 -5 3 -10 10 -10 16 0 5 5 9 10 9 6 0
10 -7 10 -16z m-732 -81 c2 -38 2 -66 -1 -63 -8 9 -17 130 -9 130 4 0 8 -30
10 -67z m332 42 c0 -8 -4 -15 -10 -15 -5 0 -7 7 -4 15 4 8 8 15 10 15 2 0 4
-7 4 -15z m424 -17 c-3 -4 -12 -8 -20 -8 -17 0 -19 27 -1 33 14 5 28 -13 21
-25z m1006 0 c0 -6 -6 -5 -15 2 -8 7 -15 14 -15 16 0 2 7 1 15 -2 8 -4 15 -11
15 -16z m-830 -45 c0 -7 -8 -13 -17 -13 -12 0 -14 3 -6 8 8 5 9 13 3 22 -15
24 -11 36 5 14 8 -10 15 -25 15 -31z m-776 5 c-4 -13 -7 -27 -6 -33 3 -20 -45
-45 -70 -36 -23 8 -23 8 -1 15 11 4 33 25 48 46 30 43 42 46 29 8z m1539 5 c3
9 11 17 18 17 6 0 8 -7 5 -16 -3 -8 -2 -12 4 -9 6 3 10 2 10 -2 0 -5 -9 -14
-19 -20 -26 -16 -55 4 -45 32 7 18 8 18 14 0 6 -17 7 -17 13 -2z m-218 -28 c2
-14 -1 -25 -6 -25 -6 0 -7 -6 -3 -12 4 -8 3 -10 -2 -5 -5 5 -9 12 -9 15 0 4
-4 13 -9 21 -7 11 -5 13 8 8 14 -6 16 -3 10 16 -3 12 -3 19 1 15 4 -4 9 -19
10 -33z m-632 -29 c-13 -29 -28 -41 -76 -64 -5 -2 13 18 40 46 26 27 49 50 50
51 2 1 -5 -14 -14 -33z m1877 -31 c0 -14 -4 -25 -10 -25 -5 0 -10 5 -10 10 0
6 -7 10 -15 10 -8 0 -15 7 -15 15 0 9 9 15 25 15 20 0 25 -5 25 -25z m-1239
-8 c-10 -9 -11 -8 -5 6 3 10 9 15 12 12 3 -3 0 -11 -7 -18z m1179 -2 c0 -8 -4
-15 -9 -15 -5 0 -11 7 -15 15 -3 9 0 15 9 15 8 0 15 -7 15 -15z m-2420 -35 c0
-11 -4 -20 -9 -20 -14 0 -23 18 -16 30 10 17 25 11 25 -10z m-206 -34 c14 -3
26 -11 26 -16 0 -6 -9 -6 -25 0 -29 11 -32 7 -38 -55 -2 -22 -4 -4 -5 40 0 53
2 73 8 59 5 -12 20 -24 34 -28z m611 -15 c-9 -30 -23 -51 -31 -51 -8 0 -14 -4
-14 -10 0 -5 -6 -10 -14 -10 -8 0 -16 -6 -18 -12 -3 -9 -9 -8 -22 5 -10 9 -22
17 -28 17 -6 0 -9 -3 -5 -6 7 -8 -17 -34 -32 -34 -6 0 -11 5 -11 10 0 6 7 10
15 10 18 0 18 5 5 31 -6 10 -19 19 -30 19 -31 0 -33 19 -3 32 15 6 36 21 45
32 16 19 18 19 18 4 0 -11 8 -18 20 -18 13 0 22 -9 26 -25 3 -14 11 -25 16
-25 15 0 68 60 68 78 0 8 3 13 6 9 3 -3 -2 -28 -11 -56z m-448 15 c-9 -22 20
-54 56 -61 17 -4 37 -11 42 -15 6 -4 24 -7 42 -7 27 0 30 2 20 18 -14 23 -1
37 21 23 25 -16 26 -41 3 -49 -27 -8 -27 -29 -1 -22 25 7 25 3 -2 -23 -26 -24
-38 -26 -38 -5 0 8 -4 15 -10 15 -5 0 -10 -7 -10 -15 0 -8 -9 -15 -20 -15 -16
0 -20 7 -21 38 -1 20 -4 27 -6 16 -2 -12 -15 -26 -28 -32 -23 -11 -24 -10 -15
14 10 26 6 44 -11 44 -5 0 -9 -10 -9 -21 0 -18 -2 -19 -15 -9 -8 7 -15 25 -15
40 0 40 -9 60 -29 61 -9 1 -2 5 14 9 17 4 32 8 34 9 2 0 1 -5 -2 -13z m63 -11
c0 -8 -4 -15 -9 -15 -13 0 -22 16 -14 24 11 11 23 6 23 -9z m213 -75 c-4 -4
-21 -10 -38 -13 -16 -4 -25 -4 -18 -1 7 3 10 11 7 18 -3 9 4 11 26 8 17 -2 28
-8 23 -12z m297 -19 c0 -6 -4 -13 -10 -16 -5 -3 -10 1 -10 9 0 9 5 16 10 16 6
0 10 -4 10 -9z m-27 -50 c6 -26 -8 -49 -17 -26 -9 24 -8 45 3 45 5 0 11 -9 14
-19z m-33 -91 l20 -20 -25 0 c-18 0 -25 5 -25 20 0 11 2 20 5 20 3 0 14 -9 25
-20z m-240 -23 c0 -20 0 -20 -19 -1 -21 21 -18 36 4 27 8 -3 15 -14 15 -26z
m50 -23 c0 -14 -3 -14 -15 -4 -8 7 -15 14 -15 16 0 2 7 4 15 4 8 0 15 -7 15
-16z m95 7 c3 -5 1 -12 -5 -16 -16 -10 -12 -45 5 -45 13 0 15 -7 9 -37 -3 -21
-11 -42 -16 -48 -7 -7 -8 2 -4 27 6 34 5 37 -21 40 -34 4 -41 29 -19 63 17 25
40 33 51 16z m92 -38 c8 -20 -4 -28 -21 -14 -8 7 -25 12 -38 11 -34 -3 -40 -1
-33 10 9 15 86 9 92 -7z m33 -48 c-12 -15 -40 -21 -40 -9 0 4 10 15 22 26 25
21 38 7 18 -17z m-195 -24 c-3 -6 -11 -11 -17 -11 -6 0 -6 6 2 15 14 17 26 13
15 -4z m145 -13 c0 -23 -18 -41 -34 -35 -9 4 -16 16 -16 27 0 15 7 20 25 20
14 0 25 -6 25 -12z m-546 -13 c3 -8 1 -15 -4 -15 -6 0 -10 7 -10 15 0 8 2 15
4 15 2 0 6 -7 10 -15z m391 -55 c-3 -5 -13 -10 -21 -10 -8 0 -12 5 -9 10 3 6
13 10 21 10 8 0 12 -4 9 -10z m403 -22 c18 -18 15 -27 -8 -21 -11 3 -20 12
-20 19 0 17 12 18 28 2z"/>
<path d="M980 1730 c0 -5 6 -10 14 -10 8 0 18 5 21 10 3 6 -3 10 -14 10 -12 0
-21 -4 -21 -10z"/>
<path d="M1298 1733 c7 -3 16 -2 19 1 4 3 -2 6 -13 5 -11 0 -14 -3 -6 -6z"/>
<path d="M2371 1723 c8 -10 17 -20 20 -23 8 -7 40 -79 68 -155 11 -28 14 -30
54 -27 52 4 229 -25 238 -39 3 -6 29 -11 57 -12 30 -1 54 -7 56 -14 6 -15 36
-18 36 -4 0 5 -7 11 -15 15 -8 3 -15 15 -15 26 0 11 7 23 15 26 12 5 15 27 15
115 l0 109 -124 0 -124 0 -24 -29 c-26 -30 -66 -56 -75 -47 -3 2 7 21 22 40
l27 36 -122 0 c-115 0 -122 -1 -109 -17z m419 -93 c0 -16 -50 -31 -74 -23 -18
6 -16 8 19 19 51 16 55 16 55 4z"/>
<path d="M919 1637 c-17 -13 -32 -57 -20 -57 12 0 51 45 51 58 0 15 -11 15
-31 -1z"/>
<path d="M995 1620 c4 -6 11 -8 16 -5 14 9 11 15 -7 15 -8 0 -12 -5 -9 -10z"/>
<path d="M953 1557 c-12 -6 -23 -20 -25 -32 -2 -11 -12 -21 -23 -23 -27 -5
-72 -49 -79 -77 -3 -13 -16 -25 -29 -29 -12 -3 -35 -18 -51 -35 -24 -25 -26
-32 -16 -52 11 -19 9 -24 -8 -38 -22 -17 -62 -80 -62 -96 0 -5 11 -15 25 -22
22 -10 27 -8 36 9 8 14 18 19 35 15 14 -2 27 0 30 5 14 21 31 117 23 125 -5 5
7 24 26 43 23 22 39 31 43 24 5 -8 17 -8 42 0 l35 10 -33 4 c-39 4 -38 25 1
30 15 2 27 8 27 13 0 6 4 8 10 4 5 -3 8 -11 6 -18 -1 -7 -1 -9 1 -4 3 4 10 7
16 7 7 0 18 9 24 19 10 15 9 22 -2 31 -18 15 -20 57 -3 62 15 5 3 38 -14 37
-7 -1 -23 -6 -35 -12z"/>
<path d="M1061 1534 c0 -11 3 -14 6 -6 3 7 2 16 -1 19 -3 4 -6 -2 -5 -13z"/>
<path d="M1037 1484 c-9 -10 2 -24 19 -24 8 0 14 7 14 15 0 15 -21 21 -33 9z"/>
<path d="M1550 1310 c6 -11 15 -18 21 -15 12 8 12 -8 -1 -21 -7 -7 -6 -11 4
-11 8 0 13 4 11 8 -3 4 3 10 12 13 9 4 19 2 23 -4 5 -8 11 -7 21 3 8 7 21 16
29 19 8 3 -4 7 -27 9 -23 2 -39 1 -37 -3 3 -4 -2 -5 -10 -2 -9 3 -13 10 -10
15 3 5 -6 9 -21 9 -23 0 -24 -2 -15 -20z"/>
<path d="M1510 1310 c8 -5 20 -10 25 -10 6 0 3 5 -5 10 -8 5 -19 10 -25 10 -5
0 -3 -5 5 -10z"/>
<path d="M2684 1301 c3 -5 16 -11 28 -14 22 -6 22 -5 4 8 -22 17 -40 20 -32 6z"/>
<path d="M1375 1250 c-10 -11 -22 -17 -28 -13 -5 3 -7 1 -3 -5 3 -6 -1 -18
-10 -26 -13 -14 -13 -16 -1 -16 8 0 17 7 21 15 3 8 15 15 26 15 11 0 20 3 21
8 0 4 2 15 4 25 4 23 -8 22 -30 -3z m25 -4 c0 -3 -4 -8 -10 -11 -5 -3 -10 -1
-10 4 0 6 5 11 10 11 6 0 10 -2 10 -4z"/>
<path d="M1500 1266 c0 -2 8 -10 18 -17 15 -13 16 -12 3 4 -13 16 -21 21 -21
13z"/>
<path d="M1740 1186 c0 -9 5 -16 10 -16 6 0 10 4 10 9 0 6 -4 13 -10 16 -5 3
-10 -1 -10 -9z"/>
<path d="M1171 1144 c0 -11 3 -14 6 -6 3 7 2 16 -1 19 -3 4 -6 -2 -5 -13z"/>
<path d="M1050 1115 c0 -8 9 -15 20 -15 24 0 27 15 4 24 -22 9 -24 8 -24 -9z"/>
<path d="M2835 1090 c-3 -5 -1 -10 4 -10 6 0 11 5 11 10 0 6 -2 10 -4 10 -3 0
-8 -4 -11 -10z"/>
<path d="M1935 1070 c-3 -5 -2 -10 4 -10 5 0 13 5 16 10 3 6 2 10 -4 10 -5 0
-13 -4 -16 -10z"/>
<path d="M2850 1063 c0 -19 11 -43 21 -43 13 0 11 14 -6 36 -8 10 -15 14 -15
7z"/>
<path d="M1240 1040 c0 -5 5 -10 11 -10 5 0 7 5 4 10 -3 6 -8 10 -11 10 -2 0
-4 -4 -4 -10z"/>
<path d="M1167 1016 c-19 -29 -14 -35 10 -11 8 8 13 20 11 26 -2 7 -12 0 -21
-15z"/>
<path d="M523 1000 c-25 -10 -27 -18 -14 -39 7 -11 13 -10 34 4 15 10 24 22
20 31 -6 16 -9 16 -40 4z"/>
<path d="M1186 994 c-23 -23 -20 -30 4 -9 11 10 20 20 20 22 0 7 -9 2 -24 -13z"/>
<path d="M2880 990 c0 -11 5 -20 10 -20 6 0 10 9 10 20 0 11 -4 20 -10 20 -5
0 -10 -9 -10 -20z"/>
<path d="M745 780 c-3 -6 1 -7 9 -4 18 7 21 14 7 14 -6 0 -13 -4 -16 -10z"/>
<path d="M605 750 c-4 -6 -3 -16 3 -22 6 -6 12 -6 17 2 4 6 3 16 -3 22 -6 6
-12 6 -17 -2z"/>
<path d="M560 734 c0 -8 5 -12 10 -9 6 4 8 11 5 16 -9 14 -15 11 -15 -7z"/>
<path d="M2730 741 c0 -14 18 -23 31 -15 8 4 7 9 -2 15 -18 11 -29 11 -29 0z"/>
<path d="M1210 599 c0 -5 5 -7 10 -4 6 3 10 8 10 11 0 2 -4 4 -10 4 -5 0 -10
-5 -10 -11z"/>
<path d="M1307 590 c-3 -11 -1 -20 4 -20 5 0 9 2 9 4 0 2 3 11 6 20 3 9 2 16
-4 16 -5 0 -12 -9 -15 -20z"/>
<path d="M1256 571 c-3 -5 1 -12 10 -15 20 -8 29 -1 19 13 -8 13 -22 14 -29 2z"/>
<path d="M1702 283 c-23 -15 -40 -29 -38 -31 5 -4 49 18 56 28 3 4 14 12 25
18 11 6 15 12 10 12 -6 0 -30 -12 -53 -27z"/>
<path d="M1822 266 c-7 -10 -8 -31 -2 -38 5 -7 8 -66 3 -91 -3 -17 -11 -27
-22 -27 -22 0 -64 -48 -57 -66 3 -7 1 -16 -5 -20 -6 -3 -13 3 -16 15 -3 12
-11 21 -17 21 -11 0 -13 28 -8 101 1 18 10 29 25 34 20 7 21 7 3 12 -19 5 -19
6 3 17 19 11 11 13 -61 15 -174 6 -183 6 -183 -6 0 -6 -3 -15 -7 -19 -4 -3 1
-18 12 -31 10 -13 17 -30 14 -37 -3 -7 2 -19 11 -26 16 -13 21 -40 7 -40 -4 0
-8 -18 -7 -40 l0 -40 312 0 312 1 -6 37 c-3 20 -12 44 -19 52 -12 12 -16 12
-30 -8 -8 -12 -20 -22 -25 -22 -16 0 24 48 44 54 12 3 22 -3 29 -20 6 -13 17
-24 25 -24 11 0 11 4 1 22 -7 12 -19 28 -25 36 -18 19 -16 24 6 17 14 -4 23 0
31 14 8 17 7 22 -10 31 -12 6 -30 8 -42 4 -16 -5 -20 -3 -15 9 16 42 -252 102
-281 63z m240 -151 c0 -5 -5 -11 -11 -13 -6 -2 -11 4 -11 13 0 9 5 15 11 13 6
-2 11 -8 11 -13z"/>
<path d="M1286 166 c3 -9 11 -16 16 -16 13 0 5 23 -10 28 -7 2 -10 -2 -6 -12z"/>
<path d="M2878 123 c-9 -15 -25 -37 -35 -49 -19 -21 -43 -60 -43 -69 0 -3 7
-5 15 -5 8 0 15 5 15 11 0 16 41 50 51 43 5 -3 6 2 3 11 -4 8 -1 22 6 30 6 7
10 24 8 35 -3 20 -4 20 -20 -7z"/>
<path d="M2310 85 c7 -8 17 -15 22 -15 6 0 5 7 -2 15 -7 8 -17 15 -22 15 -6 0
-5 -7 2 -15z"/>
<path d="M2180 68 c0 -4 -7 -8 -15 -8 -10 0 -14 -9 -12 -30 l2 -30 65 0 66 0
-4 35 -4 35 -19 -23 c-14 -17 -18 -18 -19 -6 0 8 5 20 10 25 7 7 -2 11 -30 10
-22 0 -40 -4 -40 -8z"/>
<path d="M2338 30 l4 -30 67 1 c60 1 63 2 32 11 -18 5 -40 16 -48 24 -8 8 -18
14 -23 14 -5 0 -15 2 -23 5 -10 5 -13 -1 -9 -25z"/>
<path d="M515 10 c-3 -5 1 -10 9 -10 9 0 16 5 16 10 0 6 -4 10 -9 10 -6 0 -13
-4 -16 -10z"/>
</g>
</svg>
